<svg width="21" height="23" viewBox="0 0 21 23" fill="none" xmlns="http://www.w3.org/2000/svg">
<path d="M10.5 22.8584C11.2578 22.8584 11.9845 22.5574 12.5203 22.0216C13.0561 21.4857 13.3571 20.759 13.3571 20.0012H7.64286C7.64286 20.759 7.94388 21.4857 8.47969 22.0216C9.01551 22.5574 9.74224 22.8584 10.5 22.8584ZM11.9214 1.57125C11.9414 1.37261 11.9195 1.172 11.8571 0.982354C11.7947 0.792707 11.6933 0.618235 11.5594 0.47019C11.4255 0.322145 11.262 0.203814 11.0795 0.122828C10.8971 0.0418421 10.6996 0 10.5 0C10.3004 0 10.1029 0.0418421 9.92047 0.122828C9.738 0.203814 9.57453 0.322145 9.4406 0.47019C9.30667 0.618235 9.20526 0.792707 9.14291 0.982354C9.08055 1.172 9.05863 1.37261 9.07857 1.57125C7.46388 1.89968 6.01232 2.77605 4.96966 4.05197C3.92701 5.32788 3.35735 6.92493 3.35714 8.57268C3.35714 10.1412 2.64286 17.1441 0.5 18.5727H20.5C18.3571 17.1441 17.6429 10.1412 17.6429 8.57268C17.6429 5.11554 15.1857 2.22982 11.9214 1.57125V1.57125Z" fill="white"/>
</svg>
