<svg width="20" height="18" fill="none" xmlns="http://www.w3.org/2000/svg"><path d="M6.541.77c-.95.16-1.778.916-2.061 1.88-.052.176-.061.394-.071 1.818l-.012 1.619L2.64 7.852C.83 9.67.76 9.749.582 10.191c-.182.453-.186.517-.173 3.176.01 2.231.016 2.467.07 2.65a2.758 2.758 0 0 0 1.838 1.838c.189.057.579.061 7.533.07 4.995.007 7.406-.001 7.561-.025.273-.042.642-.166.852-.288A2.806 2.806 0 0 0 19.523 16c.057-.206.06-.527.06-6.667 0-6.139-.003-6.46-.06-6.666a2.738 2.738 0 0 0-1.84-1.855c-.188-.057-.508-.06-5.583-.066C9.092.743 6.639.753 6.541.77m10.95 1.251c.369.152.669.452.821.822l.071.174.01 6.166c.006 3.934-.003 6.244-.024 6.38a1.565 1.565 0 0 1-.125.396c-.109.216-.391.513-.576.607-.329.168-.32.167-3.292.167H11.6v-2.918c0-3.157-.001-3.171-.182-3.624-.176-.438-.253-.526-1.985-2.269-.925-.931-1.77-1.76-1.877-1.841-.466-.352-.905-.494-1.531-.496L5.6 5.583v-1.17c0-.651.015-1.25.034-1.35.099-.525.554-.992 1.068-1.094.082-.016 2.469-.027 5.381-.024l5.234.005.174.071m-6.746 2.747c-.155.047-.303.234-.33.414-.077.517.219.814.736.736.306-.046.476-.308.439-.675-.022-.208-.097-.346-.232-.426-.116-.069-.461-.096-.613-.049m4 0c-.155.047-.303.234-.33.414-.077.517.219.814.736.736.306-.046.476-.308.439-.675-.022-.208-.097-.346-.232-.426-.116-.069-.461-.096-.613-.049M6.307 6.804c.385.082.416.108 2.183 1.874 1.801 1.8 1.795 1.793 1.876 2.221.021.11.034 1.245.034 3.006v2.828H6.602l-.009-1.831c-.009-1.789-.011-1.833-.078-1.923-.142-.189-.232-.229-.515-.229-.283 0-.373.04-.515.229-.067.09-.069.134-.078 1.923l-.009 1.831H4.123c-1.352 0-1.488-.012-1.791-.167-.185-.094-.467-.391-.575-.606a1.544 1.544 0 0 1-.124-.379c-.044-.268-.043-4.45.001-4.682.081-.428.074-.421 1.876-2.221 1.161-1.16 1.719-1.695 1.823-1.747.301-.152.644-.197.974-.127m8.438 1.964c-.155.047-.303.234-.33.414-.059.395.112.688.428.735.502.076.796-.19.747-.674-.022-.208-.097-.346-.232-.426-.116-.069-.461-.096-.613-.049m0 4c-.155.047-.303.234-.33.414-.059.395.112.688.428.735.502.076.796-.19.747-.674-.022-.208-.097-.346-.232-.426-.116-.069-.461-.096-.613-.049" fill-rule="evenodd" fill="#000"/></svg>