<svg width="13" height="7" viewBox="0 0 13 7" fill="none" xmlns="http://www.w3.org/2000/svg">
<path d="M12.9999 1.16146C13.0004 1.31088 12.9698 1.45852 12.9103 1.59352C12.8509 1.72853 12.7641 1.84747 12.6564 1.9416L7.08549 6.77247C6.91936 6.91958 6.71097 7 6.49591 7C6.28085 7 6.07246 6.91958 5.90632 6.77247L0.335417 1.77157C0.145805 1.6018 0.0265648 1.35785 0.0039286 1.09337C-0.0187076 0.828899 0.0571142 0.565571 0.214714 0.361317C0.372313 0.157064 0.598781 0.0286169 0.844296 0.00423285C1.08981 -0.0201517 1.33426 0.0615248 1.52388 0.231294L6.50055 4.7021L11.4772 0.381321C11.6135 0.259016 11.7795 0.181324 11.9555 0.157441C12.1315 0.133557 12.3101 0.164479 12.4703 0.24655C12.6305 0.328621 12.7655 0.458404 12.8594 0.620543C12.9532 0.782683 13.002 0.970393 12.9999 1.16146Z" fill="#000103" fill-opacity="0.7"/>
</svg>
