<svg width="35" height="35" viewBox="0 0 35 35" fill="none" xmlns="http://www.w3.org/2000/svg">
<path d="M17.5 0C22.1413 0 26.5925 1.84374 29.8744 5.12563C33.1563 8.40752 35 12.8587 35 17.5C35 22.1413 33.1563 26.5925 29.8744 29.8744C26.5925 33.1563 22.1413 35 17.5 35C12.8587 35 8.40752 33.1563 5.12563 29.8744C1.84374 26.5925 0 22.1413 0 17.5C0 12.8587 1.84374 8.40752 5.12563 5.12563C8.40752 1.84374 12.8587 0 17.5 0V0ZM17.5 15.3775L13.435 11.3125C13.1535 11.031 12.7718 10.8729 12.3738 10.8729C11.9757 10.8729 11.594 11.031 11.3125 11.3125C11.031 11.594 10.8729 11.9757 10.8729 12.3738C10.8729 12.7718 11.031 13.1535 11.3125 13.435L15.3775 17.5L11.3125 21.565C11.1731 21.7044 11.0626 21.8698 10.9872 22.0519C10.9117 22.234 10.8729 22.4292 10.8729 22.6262C10.8729 22.8233 10.9117 23.0185 10.9872 23.2006C11.0626 23.3827 11.1731 23.5481 11.3125 23.6875C11.4519 23.8269 11.6173 23.9374 11.7994 24.0128C11.9815 24.0883 12.1767 24.1271 12.3738 24.1271C12.5708 24.1271 12.766 24.0883 12.9481 24.0128C13.1302 23.9374 13.2956 23.8269 13.435 23.6875L17.5 19.6225L21.565 23.6875C21.7044 23.8269 21.8698 23.9374 22.0519 24.0128C22.234 24.0883 22.4292 24.1271 22.6262 24.1271C22.8233 24.1271 23.0185 24.0883 23.2006 24.0128C23.3827 23.9374 23.5481 23.8269 23.6875 23.6875C23.8269 23.5481 23.9374 23.3827 24.0128 23.2006C24.0883 23.0185 24.1271 22.8233 24.1271 22.6262C24.1271 22.4292 24.0883 22.234 24.0128 22.0519C23.9374 21.8698 23.8269 21.7044 23.6875 21.565L19.6225 17.5L23.6875 13.435C23.8269 13.2956 23.9374 13.1302 24.0128 12.9481C24.0883 12.766 24.1271 12.5708 24.1271 12.3738C24.1271 12.1767 24.0883 11.9815 24.0128 11.7994C23.9374 11.6173 23.8269 11.4519 23.6875 11.3125C23.5481 11.1731 23.3827 11.0626 23.2006 10.9872C23.0185 10.9117 22.8233 10.8729 22.6262 10.8729C22.4292 10.8729 22.234 10.9117 22.0519 10.9872C21.8698 11.0626 21.7044 11.1731 21.565 11.3125L17.5 15.3775Z" fill="#DBDBDC"/>
</svg>
