<svg width="20" height="20" viewBox="0 0 20 20" fill="none" xmlns="http://www.w3.org/2000/svg">
<path d="M0 2.14286C0 1.57454 0.225765 1.02949 0.627628 0.627628C1.02949 0.225765 1.57454 0 2.14286 0H6.42857C6.99689 0 7.54194 0.225765 7.9438 0.627628C8.34566 1.02949 8.57143 1.57454 8.57143 2.14286V6.42857C8.57143 6.99689 8.34566 7.54194 7.9438 7.9438C7.54194 8.34566 6.99689 8.57143 6.42857 8.57143H2.14286C1.57454 8.57143 1.02949 8.34566 0.627628 7.9438C0.225765 7.54194 0 6.99689 0 6.42857V2.14286ZM11.4286 2.14286C11.4286 1.57454 11.6543 1.02949 12.0562 0.627628C12.4581 0.225765 13.0031 0 13.5714 0H17.8571C18.4255 0 18.9705 0.225765 19.3724 0.627628C19.7742 1.02949 20 1.57454 20 2.14286V6.42857C20 6.99689 19.7742 7.54194 19.3724 7.9438C18.9705 8.34566 18.4255 8.57143 17.8571 8.57143H13.5714C13.0031 8.57143 12.4581 8.34566 12.0562 7.9438C11.6543 7.54194 11.4286 6.99689 11.4286 6.42857V2.14286ZM0 13.5714C0 13.0031 0.225765 12.4581 0.627628 12.0562C1.02949 11.6543 1.57454 11.4286 2.14286 11.4286H6.42857C6.99689 11.4286 7.54194 11.6543 7.9438 12.0562C8.34566 12.4581 8.57143 13.0031 8.57143 13.5714V17.8571C8.57143 18.4255 8.34566 18.9705 7.9438 19.3724C7.54194 19.7742 6.99689 20 6.42857 20H2.14286C1.57454 20 1.02949 19.7742 0.627628 19.3724C0.225765 18.9705 0 18.4255 0 17.8571V13.5714ZM11.4286 13.5714C11.4286 13.0031 11.6543 12.4581 12.0562 12.0562C12.4581 11.6543 13.0031 11.4286 13.5714 11.4286H17.8571C18.4255 11.4286 18.9705 11.6543 19.3724 12.0562C19.7742 12.4581 20 13.0031 20 13.5714V17.8571C20 18.4255 19.7742 18.9705 19.3724 19.3724C18.9705 19.7742 18.4255 20 17.8571 20H13.5714C13.0031 20 12.4581 19.7742 12.0562 19.3724C11.6543 18.9705 11.4286 18.4255 11.4286 17.8571V13.5714Z" fill="#1849C6"/>
</svg>
