<svg width="18" height="16" viewBox="0 0 18 16" fill="none" xmlns="http://www.w3.org/2000/svg">
<path d="M13.4451 -3.42191e-08C14.652 -3.72907e-08 15.813 0.471111 16.6671 1.31644C17.5221 2.16 18 3.29778 18 4.48889L18 11.5111C18 13.9911 15.957 16 13.4451 16L4.554 16C2.0421 16 2.33598e-08 13.9911 1.92191e-08 11.5111L7.49473e-09 4.48889C3.35408e-09 2.00889 2.0331 -5.17443e-09 4.554 -1.15904e-08L13.4451 -3.42191e-08ZM14.463 4.62222C14.274 4.61244 14.094 4.67556 13.9581 4.8L9.9 8C9.378 8.42756 8.6301 8.42756 8.1 8L4.05 4.8C3.7701 4.59556 3.3831 4.62222 3.15 4.86222C2.907 5.10222 2.88 5.48444 3.0861 5.75111L3.204 5.86667L7.299 9.02222C7.803 9.41333 8.4141 9.62667 9.054 9.62667C9.6921 9.62667 10.314 9.41333 10.8171 9.02222L14.877 5.81333L14.949 5.74222C15.1641 5.48444 15.1641 5.11111 14.9391 4.85333C14.814 4.72089 14.6421 4.64 14.463 4.62222Z" fill="#A1A6B1"/>
</svg>
