<svg width="22" height="17" fill="none" xmlns="http://www.w3.org/2000/svg"><path d="M.741.041a1.281 1.281 0 0 0-.297.085.938.938 0 0 0-.375.448c-.064.182-.064.687 0 .87a.837.837 0 0 0 .492.488c.182.063.645.066 10.439.066s10.257-.003 10.439-.066a.837.837 0 0 0 .492-.488c.073-.21.065-.693-.016-.901a.9.9 0 0 0-.49-.476C21.311.028 19.381.018 11.11.014 5.326.01.851.022.741.041M.623 5.057c-.318.098-.481.277-.571.628-.079.308-.05.61.086.878.087.171.133.216.319.311l.216.111h20.654l.216-.111c.186-.095.232-.14.319-.311.136-.268.165-.57.086-.878-.072-.282-.192-.45-.399-.561l-.154-.082-10.34-.006C5.368 5.032.674 5.042.623 5.057m.012 5.006c-.264.082-.405.194-.505.398-.127.26-.155.569-.078.867.072.283.192.451.399.562l.154.082h20.79l.172-.101c.219-.129.308-.256.382-.546a1.232 1.232 0 0 0-.087-.874c-.087-.172-.133-.217-.319-.312l-.216-.111-10.269-.007c-8.376-.005-10.298.002-10.423.042m.208 4.959c-.386.043-.667.242-.774.547-.073.21-.065.693.016.901.079.206.297.414.49.467.197.055 20.653.055 20.85 0 .193-.053.411-.261.49-.467.089-.23.09-.698.002-.926a.827.827 0 0 0-.467-.463c-.157-.063-.647-.066-10.322-.07-5.586-.002-10.214.003-10.285.011" fill="#1849C6" fill-rule="evenodd"/></svg>