<svg width="161" height="20" viewBox="0 0 161 20" fill="none" xmlns="http://www.w3.org/2000/svg">
<path d="M9.33949 4.45312C9.2732 3.83286 8.99384 3.34991 8.50142 3.00426C8.01373 2.65862 7.37926 2.4858 6.59801 2.4858C6.04877 2.4858 5.57765 2.56866 5.18466 2.73438C4.79167 2.90009 4.491 3.125 4.28267 3.40909C4.07434 3.69318 3.9678 4.01752 3.96307 4.3821C3.96307 4.68513 4.03172 4.94792 4.16903 5.17045C4.31108 5.39299 4.50284 5.58239 4.74432 5.73864C4.9858 5.89015 5.25331 6.01799 5.54688 6.12216C5.84044 6.22633 6.13636 6.31392 6.43466 6.38494L7.7983 6.72585C8.34754 6.85369 8.87547 7.02651 9.3821 7.24432C9.89347 7.46212 10.3504 7.73674 10.7528 8.06818C11.16 8.39962 11.482 8.79972 11.7188 9.26847C11.9555 9.73722 12.0739 10.2865 12.0739 10.9162C12.0739 11.7685 11.8561 12.5189 11.4205 13.1676C10.9848 13.8116 10.3551 14.3158 9.53125 14.6804C8.71212 15.0402 7.72017 15.2202 6.5554 15.2202C5.42377 15.2202 4.44129 15.045 3.60795 14.6946C2.77936 14.3442 2.13068 13.8329 1.66193 13.1605C1.19792 12.4882 0.94697 11.669 0.909091 10.7031H3.50142C3.5393 11.2098 3.69555 11.6312 3.97017 11.9673C4.24479 12.3035 4.60227 12.5545 5.04261 12.7202C5.48769 12.8859 5.98485 12.9688 6.53409 12.9688C7.10701 12.9688 7.6089 12.8835 8.03977 12.7131C8.47538 12.5379 8.81629 12.2964 9.0625 11.9886C9.30871 11.6761 9.43419 11.3116 9.43892 10.8949C9.43419 10.5161 9.32292 10.2036 9.10511 9.95739C8.88731 9.70644 8.58191 9.49811 8.18892 9.33239C7.80066 9.16193 7.34612 9.01042 6.82528 8.87784L5.17045 8.4517C3.97254 8.14394 3.02557 7.67756 2.32955 7.05256C1.63826 6.42282 1.29261 5.58712 1.29261 4.54545C1.29261 3.68845 1.52462 2.93797 1.98864 2.29403C2.45739 1.65009 3.09422 1.15057 3.89915 0.795454C4.70407 0.435605 5.61553 0.255681 6.63352 0.255681C7.66572 0.255681 8.57008 0.435605 9.34659 0.795454C10.1278 1.15057 10.741 1.64536 11.1861 2.27983C11.6312 2.90956 11.8608 3.634 11.875 4.45312H9.33949ZM19.9567 4.09091V6.07955H13.6854V4.09091H19.9567ZM15.2337 1.47727H17.8048V11.7188C17.8048 12.0644 17.8568 12.3295 17.961 12.5142C18.0699 12.6941 18.212 12.8172 18.3871 12.8835C18.5623 12.9498 18.7565 12.983 18.9695 12.983C19.1305 12.983 19.2773 12.9711 19.4099 12.9474C19.5472 12.9238 19.6513 12.9025 19.7224 12.8835L20.1556 14.8935C20.0183 14.9408 19.8218 14.9929 19.5661 15.0497C19.3152 15.1065 19.0074 15.1397 18.6428 15.1491C17.9989 15.1681 17.4189 15.071 16.9028 14.858C16.3867 14.6402 15.9771 14.304 15.6741 13.8494C15.3758 13.3949 15.229 12.8267 15.2337 12.1449V1.47727ZM26.9483 15.2131C25.883 15.2131 24.9597 14.9787 24.1784 14.5099C23.3972 14.0412 22.7911 13.3854 22.3602 12.5426C21.9341 11.6998 21.721 10.715 21.721 9.58807C21.721 8.46117 21.9341 7.47396 22.3602 6.62642C22.7911 5.77888 23.3972 5.12074 24.1784 4.65199C24.9597 4.18324 25.883 3.94886 26.9483 3.94886C28.0136 3.94886 28.9369 4.18324 29.7182 4.65199C30.4994 5.12074 31.1031 5.77888 31.5293 6.62642C31.9601 7.47396 32.1756 8.46117 32.1756 9.58807C32.1756 10.715 31.9601 11.6998 31.5293 12.5426C31.1031 13.3854 30.4994 14.0412 29.7182 14.5099C28.9369 14.9787 28.0136 15.2131 26.9483 15.2131ZM26.9625 13.1534C27.5402 13.1534 28.0231 12.9948 28.4114 12.6776C28.7996 12.3556 29.0884 11.9247 29.2778 11.3849C29.472 10.8452 29.569 10.2438 29.569 9.58097C29.569 8.91335 29.472 8.30966 29.2778 7.76989C29.0884 7.22538 28.7996 6.79214 28.4114 6.47017C28.0231 6.1482 27.5402 5.98722 26.9625 5.98722C26.3706 5.98722 25.8782 6.1482 25.4852 6.47017C25.097 6.79214 24.8058 7.22538 24.6116 7.76989C24.4223 8.30966 24.3276 8.91335 24.3276 9.58097C24.3276 10.2438 24.4223 10.8452 24.6116 11.3849C24.8058 11.9247 25.097 12.3556 25.4852 12.6776C25.8782 12.9948 26.3706 13.1534 26.9625 13.1534ZM34.5577 15V4.09091H37.0506V5.90909H37.1643C37.3631 5.27936 37.704 4.79403 38.187 4.45312C38.6747 4.10748 39.231 3.93466 39.856 3.93466C39.9981 3.93466 40.1567 3.94176 40.3319 3.95597C40.5118 3.96544 40.661 3.98201 40.7793 4.00568V6.37074C40.6704 6.33286 40.4976 6.29972 40.2609 6.27131C40.0289 6.23816 39.804 6.22159 39.5861 6.22159C39.1174 6.22159 38.696 6.32339 38.3219 6.52699C37.9526 6.72585 37.6614 7.00284 37.4484 7.35795C37.2353 7.71307 37.1288 8.12263 37.1288 8.58665V15H34.5577ZM45.6313 15.2202C44.94 15.2202 44.3174 15.0971 43.7634 14.8509C43.2142 14.5999 42.7786 14.2306 42.4566 13.7429C42.1394 13.2552 41.9808 12.6539 41.9808 11.9389C41.9808 11.3234 42.0944 10.8144 42.3217 10.4119C42.5489 10.0095 42.8591 9.6875 43.2521 9.44602C43.6451 9.20455 44.0878 9.02225 44.5802 8.89915C45.0773 8.77131 45.5911 8.67898 46.1214 8.62216C46.7606 8.55587 47.279 8.49669 47.6768 8.4446C48.0745 8.38778 48.3633 8.30256 48.5433 8.18892C48.7279 8.07055 48.8202 7.88826 48.8202 7.64205V7.59943C48.8202 7.06439 48.6616 6.65009 48.3444 6.35653C48.0272 6.06297 47.5702 5.91619 46.9736 5.91619C46.3439 5.91619 45.8444 6.0535 45.4751 6.32812C45.1105 6.60275 44.8643 6.92708 44.7364 7.30114L42.3359 6.96023C42.5253 6.29735 42.8378 5.74337 43.2734 5.2983C43.709 4.84848 44.2416 4.51231 44.8714 4.28977C45.5011 4.0625 46.1971 3.94886 46.9594 3.94886C47.485 3.94886 48.0082 4.01042 48.529 4.13352C49.0499 4.25663 49.5257 4.46023 49.9566 4.74432C50.3875 5.02367 50.7331 5.40483 50.9935 5.88778C51.2587 6.37074 51.3913 6.97443 51.3913 7.69886V15H48.9197V13.5014H48.8344C48.6782 13.8045 48.458 14.0885 48.1739 14.3537C47.8946 14.6141 47.5418 14.8248 47.1157 14.9858C46.6943 15.142 46.1995 15.2202 45.6313 15.2202ZM46.2989 13.331C46.815 13.331 47.2625 13.2292 47.6413 13.0256C48.0201 12.8172 48.3112 12.5426 48.5148 12.2017C48.7232 11.8608 48.8273 11.4891 48.8273 11.0866V9.80114C48.7469 9.86742 48.6095 9.92898 48.4154 9.9858C48.226 10.0426 48.0129 10.0923 47.7762 10.1349C47.5395 10.1776 47.3051 10.2154 47.0731 10.2486C46.8411 10.2817 46.6398 10.3101 46.4694 10.3338C46.0859 10.3859 45.7426 10.4711 45.4396 10.5895C45.1365 10.7079 44.8974 10.8736 44.7222 11.0866C44.547 11.295 44.4594 11.5649 44.4594 11.8963C44.4594 12.3698 44.6323 12.7273 44.9779 12.9688C45.3236 13.2102 45.7639 13.331 46.2989 13.331ZM58.9208 19.3182C57.9975 19.3182 57.2044 19.1927 56.5415 18.9418C55.8787 18.6955 55.346 18.3641 54.9435 17.9474C54.5411 17.5308 54.2617 17.0691 54.1055 16.5625L56.4208 16.0014C56.525 16.2145 56.6765 16.4252 56.8754 16.6335C57.0742 16.8466 57.3417 17.0218 57.6779 17.1591C58.0188 17.3011 58.4473 17.3722 58.9634 17.3722C59.6926 17.3722 60.2963 17.1946 60.7745 16.8395C61.2527 16.4891 61.4918 15.9115 61.4918 15.1065V13.0398H61.364C61.2314 13.3049 61.0373 13.5772 60.7816 13.8565C60.5307 14.1359 60.1969 14.3703 59.7802 14.5597C59.3683 14.7491 58.8498 14.8438 58.2248 14.8438C57.3867 14.8438 56.6268 14.6473 55.945 14.2543C55.2679 13.8565 54.7281 13.2647 54.3256 12.4787C53.9279 11.688 53.729 10.6984 53.729 9.50994C53.729 8.31203 53.9279 7.30114 54.3256 6.47727C54.7281 5.64867 55.2702 5.02131 55.9521 4.59517C56.6339 4.1643 57.3938 3.94886 58.2319 3.94886C58.8711 3.94886 59.3967 4.05777 59.8086 4.27557C60.2253 4.48864 60.5567 4.74669 60.8029 5.04972C61.0491 5.34801 61.2362 5.62973 61.364 5.89489H61.506V4.09091H64.0415V15.1776C64.0415 16.1103 63.819 16.8821 63.3739 17.4929C62.9289 18.1037 62.3204 18.5606 61.5487 18.8636C60.7769 19.1667 59.9009 19.3182 58.9208 19.3182ZM58.9421 12.8267C59.4866 12.8267 59.9506 12.6941 60.3342 12.429C60.7177 12.1638 61.0089 11.7827 61.2077 11.2855C61.4066 10.7884 61.506 10.1918 61.506 9.49574C61.506 8.80919 61.4066 8.20786 61.2077 7.69176C61.0136 7.17566 60.7248 6.77557 60.3413 6.49148C59.9625 6.20265 59.4961 6.05824 58.9421 6.05824C58.3692 6.05824 57.891 6.20739 57.5075 6.50568C57.1239 6.80398 56.8351 7.21354 56.641 7.73438C56.4469 8.25047 56.3498 8.83759 56.3498 9.49574C56.3498 10.1634 56.4469 10.7481 56.641 11.25C56.8398 11.7472 57.131 12.1354 57.5146 12.4148C57.9028 12.6894 58.3787 12.8267 58.9421 12.8267ZM71.706 15.2131C70.6123 15.2131 69.6677 14.9858 68.8722 14.5312C68.0815 14.072 67.4731 13.4233 67.0469 12.5852C66.6208 11.7424 66.4077 10.7505 66.4077 9.60938C66.4077 8.48722 66.6208 7.50237 67.0469 6.65483C67.4778 5.80256 68.0791 5.13968 68.8509 4.66619C69.6227 4.18797 70.5294 3.94886 71.5711 3.94886C72.2434 3.94886 72.8779 4.05777 73.4745 4.27557C74.0758 4.48864 74.6061 4.82008 75.0654 5.26989C75.5294 5.7197 75.894 6.29261 76.1592 6.98864C76.4243 7.67992 76.5569 8.50379 76.5569 9.46023V10.2486H67.6151V8.51562H74.0924C74.0877 8.0232 73.9811 7.58523 73.7728 7.2017C73.5645 6.81345 73.2733 6.50805 72.8992 6.28551C72.5299 6.06297 72.099 5.9517 71.6066 5.9517C71.081 5.9517 70.6194 6.07955 70.2217 6.33523C69.8239 6.58617 69.5138 6.91761 69.2913 7.32955C69.0735 7.73674 68.9622 8.18419 68.9575 8.67188V10.1847C68.9575 10.8191 69.0735 11.3636 69.3055 11.8182C69.5375 12.268 69.8618 12.6136 70.2785 12.8551C70.6951 13.0919 71.1828 13.2102 71.7415 13.2102C72.1156 13.2102 72.4541 13.1581 72.7572 13.054C73.0602 12.9451 73.323 12.7865 73.5455 12.5781C73.7681 12.3698 73.9361 12.1117 74.0498 11.804L76.4504 12.0739C76.2988 12.7083 76.01 13.2623 75.5839 13.7358C75.1625 14.2045 74.6227 14.5691 73.9646 14.8295C73.3064 15.0852 72.5536 15.2131 71.706 15.2131ZM91.4959 5.36222H88.8396C88.7639 4.92661 88.6242 4.54072 88.4206 4.20455C88.217 3.86364 87.9637 3.57481 87.6607 3.33807C87.3576 3.10133 87.012 2.92377 86.6237 2.8054C86.2402 2.68229 85.8259 2.62074 85.3808 2.62074C84.5901 2.62074 83.8893 2.8196 83.2786 3.21733C82.6678 3.61032 82.1895 4.18797 81.8439 4.95028C81.4982 5.70786 81.3254 6.63352 81.3254 7.72727C81.3254 8.83996 81.4982 9.77746 81.8439 10.5398C82.1943 11.2973 82.6725 11.8703 83.2786 12.2585C83.8893 12.642 84.5877 12.8338 85.3737 12.8338C85.8093 12.8338 86.2165 12.777 86.5953 12.6634C86.9788 12.545 87.3221 12.3722 87.6251 12.1449C87.9329 11.9176 88.191 11.6383 88.3993 11.3068C88.6124 10.9754 88.7591 10.5966 88.8396 10.1705L91.4959 10.1847C91.3965 10.8759 91.181 11.5246 90.8496 12.1307C90.5229 12.7367 90.0944 13.2718 89.5641 13.7358C89.0338 14.1951 88.4135 14.5549 87.7033 14.8153C86.993 15.071 86.2047 15.1989 85.3382 15.1989C84.0598 15.1989 82.9187 14.9029 81.9149 14.3111C80.9111 13.7192 80.1204 12.8646 79.5428 11.7472C78.9651 10.6297 78.6763 9.28977 78.6763 7.72727C78.6763 6.16004 78.9675 4.82008 79.5499 3.70739C80.1322 2.58996 80.9253 1.73532 81.9291 1.14347C82.9329 0.551609 84.0693 0.255681 85.3382 0.255681C86.1479 0.255681 86.9007 0.369318 87.5967 0.59659C88.2928 0.823863 88.913 1.15767 89.4575 1.59801C90.002 2.03362 90.4495 2.56866 90.7999 3.20312C91.155 3.83286 91.387 4.55256 91.4959 5.36222ZM98.7538 15.2131C97.6884 15.2131 96.7651 14.9787 95.9839 14.5099C95.2026 14.0412 94.5966 13.3854 94.1657 12.5426C93.7396 11.6998 93.5265 10.715 93.5265 9.58807C93.5265 8.46117 93.7396 7.47396 94.1657 6.62642C94.5966 5.77888 95.2026 5.12074 95.9839 4.65199C96.7651 4.18324 97.6884 3.94886 98.7538 3.94886C99.8191 3.94886 100.742 4.18324 101.524 4.65199C102.305 5.12074 102.909 5.77888 103.335 6.62642C103.766 7.47396 103.981 8.46117 103.981 9.58807C103.981 10.715 103.766 11.6998 103.335 12.5426C102.909 13.3854 102.305 14.0412 101.524 14.5099C100.742 14.9787 99.8191 15.2131 98.7538 15.2131ZM98.768 13.1534C99.3456 13.1534 99.8286 12.9948 100.217 12.6776C100.605 12.3556 100.894 11.9247 101.083 11.3849C101.277 10.8452 101.375 10.2438 101.375 9.58097C101.375 8.91335 101.277 8.30966 101.083 7.76989C100.894 7.22538 100.605 6.79214 100.217 6.47017C99.8286 6.1482 99.3456 5.98722 98.768 5.98722C98.1761 5.98722 97.6837 6.1482 97.2907 6.47017C96.9024 6.79214 96.6112 7.22538 96.4171 7.76989C96.2277 8.30966 96.133 8.91335 96.133 9.58097C96.133 10.2438 96.2277 10.8452 96.4171 11.3849C96.6112 11.9247 96.9024 12.3556 97.2907 12.6776C97.6837 12.9948 98.1761 13.1534 98.768 13.1534ZM108.934 8.60795V15H106.363V4.09091H108.821V5.9446H108.948C109.199 5.33381 109.599 4.84848 110.149 4.48864C110.703 4.12879 111.387 3.94886 112.201 3.94886C112.954 3.94886 113.61 4.10985 114.169 4.43182C114.732 4.75379 115.168 5.22017 115.475 5.83097C115.788 6.44176 115.942 7.18276 115.937 8.05398V15H113.366V8.4517C113.366 7.72254 113.177 7.15199 112.798 6.74006C112.424 6.32812 111.905 6.12216 111.242 6.12216C110.793 6.12216 110.393 6.22159 110.042 6.42045C109.697 6.61458 109.424 6.89631 109.225 7.26562C109.031 7.63494 108.934 8.08239 108.934 8.60795ZM121.322 8.60795V15H118.751V4.09091H121.208V5.9446H121.336C121.587 5.33381 121.987 4.84848 122.536 4.48864C123.09 4.12879 123.774 3.94886 124.589 3.94886C125.342 3.94886 125.997 4.10985 126.556 4.43182C127.12 4.75379 127.555 5.22017 127.863 5.83097C128.175 6.44176 128.329 7.18276 128.325 8.05398V15H125.754V8.4517C125.754 7.72254 125.564 7.15199 125.185 6.74006C124.811 6.32812 124.293 6.12216 123.63 6.12216C123.18 6.12216 122.78 6.22159 122.43 6.42045C122.084 6.61458 121.812 6.89631 121.613 7.26562C121.419 7.63494 121.322 8.08239 121.322 8.60795ZM135.968 15.2131C134.874 15.2131 133.929 14.9858 133.134 14.5312C132.343 14.072 131.735 13.4233 131.309 12.5852C130.883 11.7424 130.669 10.7505 130.669 9.60938C130.669 8.48722 130.883 7.50237 131.309 6.65483C131.74 5.80256 132.341 5.13968 133.113 4.66619C133.884 4.18797 134.791 3.94886 135.833 3.94886C136.505 3.94886 137.14 4.05777 137.736 4.27557C138.338 4.48864 138.868 4.82008 139.327 5.26989C139.791 5.7197 140.156 6.29261 140.421 6.98864C140.686 7.67992 140.819 8.50379 140.819 9.46023V10.2486H131.877V8.51562H138.354C138.349 8.0232 138.243 7.58523 138.035 7.2017C137.826 6.81345 137.535 6.50805 137.161 6.28551C136.792 6.06297 136.361 5.9517 135.868 5.9517C135.343 5.9517 134.881 6.07955 134.483 6.33523C134.086 6.58617 133.776 6.91761 133.553 7.32955C133.335 7.73674 133.224 8.18419 133.219 8.67188V10.1847C133.219 10.8191 133.335 11.3636 133.567 11.8182C133.799 12.268 134.124 12.6136 134.54 12.8551C134.957 13.0919 135.445 13.2102 136.003 13.2102C136.377 13.2102 136.716 13.1581 137.019 13.054C137.322 12.9451 137.585 12.7865 137.807 12.5781C138.03 12.3698 138.198 12.1117 138.312 11.804L140.712 12.0739C140.561 12.7083 140.272 13.2623 139.846 13.7358C139.424 14.2045 138.884 14.5691 138.226 14.8295C137.568 15.0852 136.815 15.2131 135.968 15.2131ZM147.952 15.2131C146.863 15.2131 145.928 14.974 145.147 14.4957C144.37 14.0175 143.771 13.357 143.35 12.5142C142.933 11.6667 142.725 10.6913 142.725 9.58807C142.725 8.48011 142.938 7.50237 143.364 6.65483C143.79 5.80256 144.392 5.13968 145.168 4.66619C145.949 4.18797 146.873 3.94886 147.938 3.94886C148.823 3.94886 149.607 4.11222 150.289 4.43892C150.975 4.76089 151.522 5.2178 151.929 5.80966C152.337 6.39678 152.569 7.08333 152.625 7.86932H150.168C150.069 7.34375 149.832 6.90578 149.458 6.5554C149.089 6.20028 148.594 6.02273 147.974 6.02273C147.448 6.02273 146.986 6.16477 146.589 6.44886C146.191 6.72822 145.881 7.13068 145.658 7.65625C145.44 8.18182 145.331 8.81155 145.331 9.54545C145.331 10.2888 145.44 10.928 145.658 11.4631C145.876 11.9934 146.181 12.4029 146.574 12.6918C146.972 12.9759 147.438 13.1179 147.974 13.1179C148.352 13.1179 148.691 13.0469 148.989 12.9048C149.292 12.758 149.545 12.5473 149.749 12.2727C149.953 11.9981 150.092 11.6643 150.168 11.2713H152.625C152.564 12.0431 152.337 12.7273 151.944 13.3239C151.551 13.9157 151.016 14.3797 150.339 14.7159C149.661 15.0473 148.866 15.2131 147.952 15.2131ZM160.384 4.09091V6.07955H154.113V4.09091H160.384ZM155.661 1.47727H158.232V11.7188C158.232 12.0644 158.284 12.3295 158.388 12.5142C158.497 12.6941 158.639 12.8172 158.814 12.8835C158.99 12.9498 159.184 12.983 159.397 12.983C159.558 12.983 159.705 12.9711 159.837 12.9474C159.975 12.9238 160.079 12.9025 160.15 12.8835L160.583 14.8935C160.446 14.9408 160.249 14.9929 159.993 15.0497C159.743 15.1065 159.435 15.1397 159.07 15.1491C158.426 15.1681 157.846 15.071 157.33 14.858C156.814 14.6402 156.404 14.304 156.101 13.8494C155.803 13.3949 155.656 12.8267 155.661 12.1449V1.47727Z" fill="white"/>
</svg>
