<svg width="20" height="20" fill="none" xmlns="http://www.w3.org/2000/svg"><path d="M8.467.02c-1.34.116-2.482.439-3.598 1.019a8.571 8.571 0 0 0-2.206 1.624C1.215 4.111.353 5.881.063 8c-.065.47-.056 1.72.016 2.217.381 2.647 1.778 4.894 3.945 6.348 1.158.777 2.478 1.27 3.943 1.473.476.066 1.784.056 2.283-.017a9.258 9.258 0 0 0 4.221-1.725c.121-.089.227-.163.235-.163.009 0 .854.839 1.88 1.864 1.241 1.24 1.911 1.886 2.004 1.933.191.095.623.099.803.007.159-.081.463-.385.544-.544.092-.181.088-.612-.008-.803-.046-.092-.71-.782-1.938-2.013l-1.867-1.872.167-.228a9.22 9.22 0 0 0 1.625-3.639c.136-.679.165-.991.165-1.788 0-1.012-.097-1.699-.368-2.593-1.027-3.389-3.87-5.836-7.387-6.359C9.902.035 8.817-.011 8.467.02m1.316 2.014c1.825.2 3.504 1.088 4.655 2.461a7.072 7.072 0 0 1 1.29 6.838 7.074 7.074 0 0 1-5.771 4.716 8.425 8.425 0 0 1-1.81 0 7.059 7.059 0 0 1-6.116-6.306 8.808 8.808 0 0 1 .052-1.81 7.072 7.072 0 0 1 4.386-5.446 7.453 7.453 0 0 1 1.948-.464c.302-.026 1.086-.02 1.366.011" fill-rule="evenodd" fill="#000"/></svg>