<svg width="26" height="26" viewBox="0 0 26 26" fill="none" xmlns="http://www.w3.org/2000/svg">
<path d="M10.8527 24.195L10.7725 24.1089C2.07663 13.6245 9.15735 4.39145 11.536 1.80734C11.7204 1.60586 11.9427 1.44276 12.1903 1.32737C12.4379 1.21198 12.7058 1.14657 12.9786 1.13489C13.2515 1.12321 13.524 1.16549 13.7806 1.25931C14.0371 1.35313 14.2726 1.49665 14.4735 1.68163L17.0724 4.47207C17.2615 4.67475 17.3854 4.92954 17.428 5.20345C17.4707 5.47735 17.4301 5.75775 17.3115 6.00833L16.1344 8.54212C16.0193 8.7877 15.8346 8.99407 15.6033 9.13558C15.3719 9.27708 15.104 9.3475 14.833 9.33807L12.7395 9.27344C11.9389 10.3337 11.4833 11.6144 11.4344 12.9421C11.3854 14.2698 11.7455 15.5804 12.4658 16.6968L14.5781 16.7817C14.8496 16.7951 15.1111 16.8881 15.33 17.0492C15.549 17.2102 15.7156 17.4321 15.8093 17.6873L16.8227 20.3087C16.9182 20.5665 16.9347 20.8468 16.8703 21.1139C16.8059 21.3811 16.6633 21.6231 16.4609 21.8089L13.7869 24.2993C13.384 24.6746 12.8485 24.8744 12.2982 24.8549C11.7479 24.8353 11.2279 24.5979 10.8527 24.195ZM13.5738 2.74649C13.4488 2.61218 13.2754 2.53306 13.092 2.52654C12.9086 2.52002 12.7301 2.58663 12.5958 2.71172L12.5552 2.74945C9.77412 5.77464 4.07546 13.8719 11.8372 23.2213C11.8951 23.2916 11.9663 23.3499 12.0467 23.3927C12.1271 23.4355 12.2152 23.462 12.3058 23.4707C12.3965 23.4793 12.488 23.47 12.5751 23.4433C12.6622 23.4165 12.7431 23.3728 12.8132 23.3147L15.5176 20.7961L14.5041 18.1746L11.7071 18.0654L11.5111 17.794C7.9597 12.8739 11.8091 8.17289 11.8547 8.13044L12.0695 7.87366L14.8624 7.95827L16.0642 5.42046L13.5738 2.74649Z" fill="#A1A6B1"/>
</svg>
