<?xml version="1.0" standalone="no"?>
<!DOCTYPE svg PUBLIC "-//W3C//DTD SVG 1.1//EN" "http://www.w3.org/Graphics/SVG/1.1/DTD/svg11.dtd" >
<svg xmlns="http://www.w3.org/2000/svg">
<metadata>Generated by IcoMoon</metadata>
<defs>
<font id="icomoon" horiz-adv-x="1024">
<font-face units-per-em="1024" ascent="960" descent="-64" />
<missing-glyph horiz-adv-x="1024" />
<glyph unicode="&#x20;" horiz-adv-x="512" d="" />
<glyph unicode="&#xe900;" glyph-name="aria" d="M225.882 903.89c-51.92 0-101.713-20.625-138.427-57.338s-57.338-86.506-57.338-138.427v-180.706c0-11.981 4.76-23.472 13.232-31.945s19.963-13.232 31.945-13.232c11.982 0 23.472 4.76 31.945 13.232s13.232 19.963 13.232 31.945v180.706c0 58.187 47.224 105.412 105.412 105.412h180.706c11.981 0 23.472 4.76 31.945 13.232s13.232 19.963 13.232 31.945c0 11.981-4.76 23.472-13.232 31.945s-19.963 13.232-31.945 13.232h-180.706zM617.412 903.89c-11.981 0-23.472-4.76-31.945-13.232s-13.232-19.963-13.232-31.945c0-11.981 4.76-23.472 13.232-31.945s19.963-13.232 31.945-13.232h180.706c58.187 0 105.412-47.224 105.412-105.412v-180.706c0-11.981 4.759-23.472 13.234-31.945 8.469-8.472 19.962-13.232 31.943-13.232s23.474 4.76 31.943 13.232c8.475 8.472 13.234 19.963 13.234 31.945v180.706c0 51.92-20.625 101.714-57.338 138.427s-86.504 57.338-138.427 57.338h-180.706zM75.294 361.772c11.982 0 23.472-4.757 31.945-13.232 8.472-8.469 13.232-19.962 13.232-31.943v-180.706c0-58.187 47.224-105.412 105.412-105.412h180.706c11.981 0 23.472-4.759 31.945-13.234 8.472-8.469 13.232-19.962 13.232-31.943s-4.76-23.474-13.232-31.943c-8.472-8.475-19.963-13.234-31.945-13.234h-180.706c-51.92 0-101.713 20.625-138.427 57.338s-57.338 86.504-57.338 138.427v180.706c0 11.981 4.76 23.474 13.232 31.943 8.472 8.475 19.963 13.232 31.945 13.232v0zM993.882 316.597c0 11.981-4.759 23.474-13.234 31.943-8.469 8.475-19.962 13.232-31.943 13.232s-23.474-4.757-31.943-13.232c-8.475-8.469-13.234-19.962-13.234-31.943v-180.706c0-27.955-11.107-54.772-30.877-74.541-19.769-19.763-46.58-30.871-74.535-30.871h-180.706c-11.981 0-23.472-4.759-31.945-13.234-8.472-8.469-13.232-19.962-13.232-31.943s4.76-23.474 13.232-31.943c8.472-8.475 19.963-13.234 31.945-13.234h180.706c51.923 0 101.713 20.625 138.427 57.338s57.338 86.504 57.338 138.427v180.706z" />
<glyph unicode="&#xe901;" glyph-name="bell" d="M512-57.696c33.739 0 66.093 13.401 89.947 37.256 23.855 23.859 37.256 56.213 37.256 89.952h-254.408c0-33.739 13.402-66.093 37.257-89.952 23.856-23.855 56.211-37.256 89.948-37.256zM575.283 890.045c0.89 8.844-0.085 17.775-2.863 26.219s-7.293 16.211-13.254 22.802c-5.961 6.591-13.241 11.86-21.366 15.465-8.121 3.606-16.914 5.469-25.8 5.469s-17.68-1.863-25.802-5.469c-8.124-3.606-15.402-8.874-21.365-15.465s-10.478-14.359-13.254-22.802c-2.776-8.443-3.752-17.375-2.865-26.219-71.889-14.622-136.515-53.64-182.936-110.446s-71.783-127.909-71.792-201.27c0-69.833-31.801-381.615-127.205-445.218h890.435c-95.406 63.604-127.203 375.385-127.203 445.218 0 153.918-109.399 282.395-254.731 311.716v0z" />
<glyph unicode="&#xe902;" glyph-name="box" d="M0 867.2c0 32.401 26.266 58.667 58.667 58.667h906.665c32.403 0 58.668-26.266 58.668-58.667s-26.266-58.667-58.668-58.667h-906.665c-32.401 0-58.667 26.266-58.667 58.667zM172.218 761.6c-56.554 0-102.4-45.846-102.4-102.4v-569.6c0-56.556 45.846-102.4 102.4-102.4h679.562c56.556 0 102.4 45.844 102.4 102.4v569.6c0 56.554-45.844 102.4-102.4 102.4h-679.562zM674.908 585.6c0-19.441-15.759-35.2-35.198-35.2h-278.692c-19.439 0-35.2 15.759-35.2 35.2s15.761 35.2 35.2 35.2h278.692c19.439 0 35.198-15.76 35.198-35.2z" />
<glyph unicode="&#xe903;" glyph-name="buildings" d="M333.001 887.426c-50.722-8.543-94.932-48.908-110.043-100.378-2.777-9.397-3.257-21.037-3.791-97.068l-0.641-86.443-93.812-94.239c-96.643-97.068-100.378-101.287-109.883-124.887-9.719-24.187-9.931-27.606-9.237-169.576 0.535-119.12 0.854-131.721 3.737-141.492 14.625-47.133 51.004-83.512 97.093-97.856l1.044-0.28c10.091-3.044 30.915-3.257 402.21-3.737 266.699-0.373 395.428 0.053 403.705 1.336 14.577 2.242 34.279 8.863 45.492 15.377 32.107 19.231 56.050 49.279 66.997 85.008l0.28 1.061c3.044 10.999 3.203 28.137 3.203 355.972 0 327.78-0.16 344.919-3.203 355.918-14.213 47.628-50.775 84.454-97.208 98.769l-1.035 0.275c-10.038 3.044-27.124 3.203-298.094 3.525-160.607 0.16-291.579-0.373-296.812-1.282zM917.655 820.63c19.701-8.115 35.72-24.134 43.836-43.891l3.791-9.291 0.535-329.222c0.319-210.049-0.16-333.387-1.282-340.648-1.41-7.941-3.729-15.035-6.891-21.646l0.217 0.503c-5.82-11.533-20.877-27.39-30.756-32.41-17.567-8.971-17.085-8.916-175.769-8.916h-148.219v155.802c0 168.561-0.053 169.309-9.719 193.497-9.397 23.386-13.508 28.085-105.985 121.148-49.39 49.71-94.506 93.971-100.218 98.297-24.881 18.795-48.319 26.376-81.744 26.483l-22.691 0.107v62.47c0 34.759 0.801 66.741 1.814 72.081 5.286 28.032 29.579 52.965 57.024 58.411 4.379 0.854 131.828 1.442 287.308 1.282l279.459-0.266 9.291-3.791zM557.465 673.959c-8.277-2.51-16.178-12.494-17.62-22.104-4.11-27.606 11.693-43.463 39.298-39.298 16.338 2.456 25.415 16.445 23.438 36.039-1.175 11.105-5.18 18.474-12.387 22.745-6.194 3.685-24.614 5.126-32.73 2.616zM771.039 673.959c-8.277-2.51-16.178-12.494-17.62-22.104-4.11-27.606 11.693-43.463 39.298-39.298 16.338 2.456 25.415 16.445 23.438 36.039-1.175 11.105-5.18 18.474-12.387 22.745-6.194 3.685-24.614 5.126-32.73 2.616zM320.507 565.251c20.556-4.379 22.213-5.765 116.556-100.059 96.161-96.108 95.841-95.733 100.165-118.586 1.121-5.874 1.814-66.475 1.814-160.5v-150.996h-202.787l-0.482 97.763c-0.482 95.519-0.589 97.869-4.163 102.674-7.582 10.091-12.387 12.227-27.497 12.227s-19.917-2.137-27.497-12.227c-3.579-4.805-3.685-7.155-4.163-102.674l-0.482-97.763h-68.076c-72.188 0-79.448 0.641-95.626 8.916-9.878 5.018-24.935 20.877-30.702 32.358-2.864 5.836-5.155 12.613-6.537 19.716l-0.085 0.52c-2.349 14.308-2.296 237.599 0.053 249.986 4.326 22.851 3.951 22.478 100.165 118.586 61.99 61.936 91.782 90.502 97.335 93.277 16.073 8.115 34.384 10.519 52.005 6.782zM771.039 460.387c-8.277-2.51-16.178-12.494-17.62-22.104-3.15-21.090 5.981-36.734 22.851-39.245 26.804-4.058 42.501 10.145 39.884 35.986-1.175 11.105-5.18 18.474-12.387 22.745-6.194 3.685-24.614 5.126-32.73 2.616zM771.039 246.816c-8.277-2.51-16.178-12.494-17.62-22.104-3.15-21.090 5.981-36.734 22.851-39.245 26.804-4.058 42.501 10.145 39.884 35.986-1.175 11.105-5.18 18.474-12.387 22.745-6.194 3.685-24.614 5.126-32.73 2.616z" />
<glyph unicode="&#xe904;" glyph-name="chevron-down-1" d="M1023.992 632.205c0.039-11.77-2.371-23.399-7.058-34.033-4.679-10.635-11.516-20.003-20-27.418l-438.816-380.524c-13.086-11.588-29.501-17.922-46.441-17.922s-33.355 6.335-46.442 17.922l-438.816 393.917c-14.936 13.373-24.328 32.588-26.111 53.421s4.189 41.574 16.603 57.663c12.414 16.089 30.253 26.207 49.592 28.127s38.594-4.513 53.53-17.885l392.008-352.162 392.007 340.344c10.736 9.634 23.812 15.754 37.675 17.635s27.932-0.554 40.55-7.019c12.619-6.465 23.253-16.688 30.649-29.459 7.389-12.772 11.232-27.557 11.067-42.608z" />
<glyph unicode="&#xe905;" glyph-name="chevron-down-2" d="M512 370.070v0l398.234 378.145c9.83 9.499 26.064 9.273 36.12-0.452l69.96-67.623c10.056-9.725 10.288-25.557 0.457-35.056l-486.253-461.825c-5.029-4.976-11.888-7.238-18.517-6.785-6.858-0.227-13.488 2.035-18.517 6.785l-486.251 461.825c-9.83 9.499-9.602 25.33 0.457 35.056l69.955 67.623c10.058 9.725 26.289 9.951 36.12 0.452l398.236-378.145z" />
<glyph unicode="&#xe906;" glyph-name="clock" d="M511.488 960c-282.624 0-511.488-229.376-511.488-512s228.864-512 511.488-512c283.136 0 512.512 229.092 512.512 512 0 282.911-229.376 512-512.512 512zM512 38.4c-226.304 0-409.6 183.296-409.6 409.6s183.296 409.6 409.6 409.6c226.304 0 409.6-183.296 409.6-409.6s-183.296-409.6-409.6-409.6zM537.6 704h-76.8v-307.2l268.8-161.28 38.4 62.976-230.4 136.704v268.8z" />
<glyph unicode="&#xe907;" glyph-name="cross" d="M512 960c135.791 0 266.021-53.943 362.040-149.961s149.96-226.248 149.96-362.039c0-135.791-53.941-266.021-149.96-362.040s-226.248-149.96-362.040-149.96c-135.791 0-266.020 53.941-362.039 149.96s-149.961 226.248-149.961 362.040c0 135.791 53.943 266.020 149.961 362.039s226.248 149.961 362.039 149.961v0zM512 510.098l-118.93 118.93c-8.236 8.236-19.403 12.861-31.048 12.861-11.647 0-22.815-4.626-31.051-12.861s-12.861-19.403-12.861-31.051c0-11.644 4.626-22.812 12.861-31.048l118.93-118.93-118.93-118.93c-4.078-4.078-7.311-8.918-9.517-14.245-2.209-5.328-3.344-11.039-3.344-16.802 0-5.767 1.135-11.478 3.344-16.805 2.206-5.328 5.439-10.167 9.517-14.245s8.918-7.311 14.245-9.517c5.328-2.209 11.039-3.344 16.805-3.344 5.764 0 11.475 1.135 16.802 3.344 5.328 2.206 10.167 5.439 14.245 9.517l118.93 118.93 118.93-118.93c4.078-4.078 8.918-7.311 14.245-9.517 5.328-2.209 11.039-3.344 16.802-3.344 5.767 0 11.478 1.135 16.805 3.344 5.328 2.206 10.167 5.439 14.245 9.517s7.311 8.918 9.517 14.245c2.209 5.328 3.344 11.039 3.344 16.805 0 5.764-1.135 11.475-3.344 16.802-2.206 5.328-5.439 10.167-9.517 14.245l-118.93 118.93 118.93 118.93c4.078 4.078 7.311 8.918 9.517 14.245 2.209 5.328 3.344 11.039 3.344 16.802 0 5.767-1.135 11.478-3.344 16.805-2.206 5.328-5.439 10.167-9.517 14.245s-8.918 7.311-14.245 9.517c-5.328 2.209-11.039 3.344-16.805 3.344-5.764 0-11.475-1.135-16.802-3.344-5.328-2.206-10.167-5.439-14.245-9.517l-118.93-118.93z" />
<glyph unicode="&#xe908;" glyph-name="earth" d="M499.2 934.4c-275.702 0-499.2-223.5-499.2-499.2 0-275.702 223.498-499.2 499.2-499.2s499.2 223.498 499.2 499.2c0 275.7-223.498 499.2-499.2 499.2zM447.483 10.419c-94.714 11.346-182.347 53.745-250.846 122.24-80.818 80.814-125.323 188.268-125.323 302.561 0 102.886 36.087 200.216 102.242 277.58 1.704-20.441 5.912-42.356 4.834-58.020-3.936-57.108-9.571-92.849 23.856-141.029 13.022-18.765 16.222-45.667 22.56-67.389 6.199-21.248 30.965-32.394 48.046-45.486 34.462-26.419 67.43-57.129 103.973-80.384 24.118-15.35 39.182-22.984 32.119-52.413-5.681-23.67-7.267-38.252-19.512-59.336-3.737-6.436 14.105-47.805 20.042-53.74 17.995-17.992 35.851-34.504 55.466-50.703 30.41-25.124-2.955-57.769-17.458-93.88zM801.761 132.654c-61.522-61.517-138.481-101.965-222.136-117.791 11.858 29.317 32.968 55.368 52.552 70.467 17.029 13.143 38.364 38.42 47.263 58.445 8.888 19.999 20.664 37.33 32.584 55.721 16.957 26.158-41.805 65.608-60.846 73.871-42.849 18.606-75.105 43.704-113.188 70.502-27.132 19.087-82.217-9.969-112.848 3.4-41.954 18.319-76.519 50.15-112.987 77.614-37.632 28.342-35.813 61.383-35.813 103.194 29.477-1.087 71.41 8.158 90.979-15.547 6.175-7.481 27.408-40.901 41.62-29.025 11.611 9.703-8.604 48.598-12.509 57.741-12.012 28.116 27.369 39.082 47.527 58.147 26.304 24.873 82.73 63.883 78.27 81.713s-56.459 68.345-87 60.464c-4.577-1.181-44.873-43.433-52.658-50.062 0.206 13.79 0.413 27.578 0.624 41.369 0.132 8.708-16.243 17.645-15.482 23.261 1.92 14.194 41.429 39.952 51.257 51.257-6.885 4.303-30.382 24.484-37.493 21.523-17.218-7.176-36.662-12.12-53.88-19.294 0 5.971-0.725 11.58-1.589 17.119 34.502 15.276 71.009 25.898 108.744 31.565l33.802-13.584 23.866-28.322 23.819-24.559 20.818-6.708 33.070 31.188-8.53 22.265v20.014c65.403-9.499 127.165-33.897 181.253-71.52-9.677-0.867-20.311-2.29-32.307-3.816-4.956 2.928-11.315 4.257-16.717 6.295 15.677-33.701 32.026-66.936 48.635-100.191 17.741-35.522 57.103-73.625 64.015-111.122 8.146-44.199 2.493-84.346 6.948-136.345 4.296-50.079 56.458-106.977 56.458-106.977s24.090-8.202 44.124-5.345c-18.678-73.876-56.96-141.635-112.246-196.925z" />
<glyph unicode="&#xe909;" glyph-name="facebook" d="M580.268 639.147v101.597c0 45.867 10.54 69.067 84.586 69.067h92.905v170.668h-155.029c-189.972 0-252.65-83.734-252.65-227.468v-113.865h-124.801v-170.668h124.801v-511.999h230.187v511.999h156.414l21.078 170.668h-177.492z" />
<glyph unicode="&#xe90a;" glyph-name="grid" d="M0 850.286c0 29.098 11.559 57.005 32.135 77.58s48.482 32.135 77.58 32.135h219.428c29.098 0 57.005-11.559 77.58-32.135s32.135-48.482 32.135-77.58v-219.428c0-29.098-11.559-57.005-32.135-77.58s-48.482-32.135-77.58-32.135h-219.428c-29.098 0-57.005 11.559-77.58 32.135s-32.135 48.482-32.135 77.58v219.428zM585.144 850.286c0 29.098 11.556 57.005 32.133 77.58s48.481 32.135 77.578 32.135h219.428c29.102 0 57.006-11.559 77.583-32.135 20.572-20.575 32.133-48.482 32.133-77.58v-219.428c0-29.098-11.561-57.005-32.133-77.58-20.577-20.575-48.481-32.135-77.583-32.135h-219.428c-29.097 0-57.001 11.559-77.578 32.135s-32.133 48.482-32.133 77.58v219.428zM0 265.144c0 29.097 11.559 57.001 32.135 77.578s48.482 32.133 77.58 32.133h219.428c29.098 0 57.005-11.556 77.58-32.133s32.135-48.481 32.135-77.578v-219.428c0-29.102-11.559-57.006-32.135-77.583-20.575-20.572-48.482-32.133-77.58-32.133h-219.428c-29.098 0-57.005 11.561-77.58 32.133-20.575 20.577-32.135 48.481-32.135 77.583v219.428zM585.144 265.144c0 29.097 11.556 57.001 32.133 77.578s48.481 32.133 77.578 32.133h219.428c29.102 0 57.006-11.556 77.583-32.133 20.572-20.577 32.133-48.481 32.133-77.578v-219.428c0-29.102-11.561-57.006-32.133-77.583-20.577-20.572-48.481-32.133-77.583-32.133h-219.428c-29.097 0-57.001 11.561-77.578 32.133-20.577 20.577-32.133 48.481-32.133 77.583v219.428z" />
<glyph unicode="&#xe90b;" glyph-name="info" d="M512 960c-101.264 0-200.254-30.028-284.452-86.287s-149.822-136.223-188.574-229.779c-38.752-93.555-48.891-196.502-29.136-295.819 19.756-99.317 68.519-190.549 140.123-262.155 71.605-71.6 162.834-120.366 262.153-140.123 99.318-19.752 202.263-9.614 295.823 29.138 93.554 38.753 173.517 104.374 229.774 188.575 56.263 84.196 86.289 183.188 86.289 284.45 0 67.237-13.244 133.815-38.975 195.934s-63.442 118.561-110.985 166.105c-47.548 47.544-103.987 85.257-166.104 110.988-62.123 25.73-128.7 38.974-195.937 38.974zM563.2 243.2c0-13.579-5.394-26.601-14.996-36.204s-22.625-14.996-36.204-14.996c-13.579 0-26.602 5.393-36.204 14.996s-14.996 22.625-14.996 36.204v256c0 13.579 5.394 26.602 14.996 36.204s22.625 14.996 36.204 14.996c13.579 0 26.602-5.394 36.204-14.996s14.996-22.625 14.996-36.204v-256zM512 601.6c-10.126 0-20.025 3.003-28.445 8.629s-14.982 13.622-18.858 22.978c-3.875 9.355-4.889 19.65-2.913 29.582s6.852 19.055 14.012 26.216c7.16 7.16 16.283 12.037 26.215 14.012s20.227 0.961 29.582-2.914c9.355-3.875 17.352-10.437 22.978-18.858s8.628-18.319 8.628-28.445c0-13.579-5.394-26.602-14.996-36.204s-22.625-14.996-36.204-14.996z" />
<glyph unicode="&#xe90c;" glyph-name="instagram" d="M308.851 638.46c54.609 54.609 127.215 85.006 204.443 85.006s149.836-30.557 204.446-85.167c34.647-34.649 59.398-76.286 72.879-122.754h217.034v291.711c0 68.436-52.893 121.331-121.332 121.331h-743.473c-68.436 0-126.494-52.895-126.494-121.331v-291.711h219.615c13.481 46.467 38.234 88.265 72.884 122.914zM925.045 713.827c0-18.249-14.794-33.044-33.045-33.044h-99.129c-18.251 0-33.045 14.793-33.045 33.044v99.13c0 18.249 14.794 33.043 33.045 33.043h99.129c18.251 0 33.045-14.792 33.045-33.043v-99.13zM717.74 229.575c-54.609-54.609-127.217-84.366-204.446-84.366s-149.833 29.594-204.443 84.203c-54.509 54.507-84.567 128.665-84.681 203.529h-207.817v-369.158c0-68.433 58.058-126.494 126.494-126.494h743.473c68.439 0 121.332 58.061 121.332 126.494v369.158h-205.234c-0.108-74.864-30.172-148.859-84.679-203.366z" />
<glyph unicode="&#xe90d;" glyph-name="letter" d="M161.684 857.6h700.632c42.88 0 84.009-17.035 114.33-47.356s47.355-71.447 47.355-114.328v-485.054c0-42.88-17.034-84.004-47.355-114.324-30.321-30.326-71.45-47.36-114.33-47.36h-700.632c-42.881 0-84.006 17.034-114.328 47.36-30.322 30.321-47.356 71.444-47.356 114.324v485.054c0 42.881 17.035 84.006 47.356 114.328s71.447 47.356 114.328 47.356zM161.684 803.705c-25.289 0.042-49.78-8.853-69.147-25.115l419.463-272.384 419.461 272.384c-19.369 16.254-43.858 25.148-69.146 25.115h-700.632zM512 441.964l-450.884 292.756c-4.781-12.378-7.229-25.534-7.222-38.804v-485.054c0-28.585 11.357-56.003 31.571-76.216s47.631-31.57 76.218-31.57h700.632c28.59 0 56.003 11.356 76.221 31.57 20.214 20.214 31.57 47.631 31.57 76.216v485.054c0 13.689-2.534 26.785-7.224 38.804l-450.883-292.756z" />
<glyph unicode="&#xe90e;" glyph-name="letter-filled" d="M764.877 903.111c68.659 0 134.707-26.801 183.296-74.891 48.64-47.989 75.827-112.716 75.827-180.477v-399.486c0-141.084-116.224-255.369-259.123-255.369h-505.805c-142.899 0-259.072 114.284-259.072 255.369v399.486c0 141.084 115.661 255.368 259.072 255.368h505.805zM822.784 640.158c-10.752 0.556-20.992-3.034-28.723-10.114l-230.861-182.044c-29.696-24.323-72.243-24.323-102.4 0l-230.4 182.044c-15.923 11.63-37.939 10.114-51.2-3.54-13.824-13.653-15.36-35.397-3.635-50.568l6.707-6.574 232.96-179.516c28.672-22.25 63.437-34.386 99.84-34.386 36.301 0 71.68 12.137 100.301 34.386l230.963 182.55 4.096 4.045c12.237 14.665 12.237 35.903-0.563 50.568-7.117 7.534-16.896 12.136-27.085 13.148z" />
<glyph unicode="&#xe90f;" glyph-name="linkedin" d="M970.553 960h-854.619c-46.679 0-87.489-33.609-87.489-79.754v-856.489c0-46.41 40.81-87.757 87.489-87.757h854.352c46.95 0 82.159 41.609 82.159 87.757v856.489c0.267 46.145-35.209 79.754-81.892 79.754zM345.86 106.445h-146.704v456.119h146.704v-456.119zM277.576 631.914h-1.067c-46.945 0-77.353 34.943-77.353 78.688 0 44.545 31.208 78.687 79.221 78.687s77.353-33.876 78.42-78.687c0-43.745-30.408-78.688-79.221-78.688zM882 106.445h-146.705v249.395c0 59.752-21.339 100.562-74.422 100.562-40.539 0-64.546-27.473-75.218-54.147-3.999-9.602-5.069-22.675-5.069-36.010v-259.8h-146.702v456.119h146.702v-63.483c21.339 30.408 54.682 74.152 132.301 74.152 96.296 0 169.114-63.483 169.114-200.32v-266.468z" />
<glyph unicode="&#xe910;" glyph-name="list" d="M58.401 826.068c-4.982-0.807-9.446-2.13-13.646-3.942l0.371 0.142c-7.525-4.741-13.337-11.602-16.658-19.741l-0.101-0.28c-2.862-8.133-2.862-30.705 0-38.883 3.917-10.127 11.822-17.974 21.73-21.727l0.259-0.085c8.133-2.818 28.83-2.952 466.563-2.952s458.426 0.134 466.563 2.952c10.168 3.838 18.073 11.682 21.903 21.555l0.086 0.257c3.262 9.386 2.907 30.971-0.715 40.268-4.299 9.71-12.038 17.244-21.633 21.177l-0.266 0.097c-5.094 1.743-91.353 2.191-461.021 2.368-258.511 0.178-458.52-0.356-463.435-1.208zM53.128 601.882c-14.213-4.382-21.496-12.382-25.519-28.070-3.531-13.767-2.235-27.265 3.844-39.242 3.888-7.644 5.946-9.653 14.257-13.901l9.653-4.959h923.115l9.653 4.959c8.315 4.244 10.369 6.257 14.257 13.901 6.080 11.978 7.373 25.474 3.844 39.242-3.218 12.603-8.581 20.114-17.835 25.074l-6.883 3.666-462.138 0.266c-254.175 0.178-463.97-0.266-466.249-0.938zM53.663 378.143c-11.799-3.666-18.101-8.671-22.572-17.79-5.676-11.621-6.928-25.429-3.484-38.748 3.218-12.649 8.581-20.159 17.835-25.118l6.883-3.666h929.195l7.687 4.516c9.786 5.764 13.767 11.443 17.075 24.403 1.222 4.33 1.925 9.302 1.925 14.434 0 8.979-2.15 17.454-5.957 24.941l0.145-0.311c-3.888 7.687-5.946 9.697-14.257 13.946l-9.653 4.959-458.964 0.311c-374.357 0.222-460.261-0.089-465.848-1.875zM62.958 156.504c-17.252-1.92-29.811-10.818-34.593-24.448-3.262-9.386-2.907-30.971 0.715-40.268 3.531-9.208 13.274-18.505 21.9-20.874 8.804-2.458 923.070-2.458 931.875 0 8.626 2.368 18.368 11.665 21.9 20.874 3.978 10.279 4.022 31.198 0.089 41.389-3.878 9.509-11.32 16.894-20.623 20.606l-0.251 0.087c-7.017 2.818-28.917 2.952-461.334 3.128-249.662 0.089-456.507-0.134-459.68-0.494z" />
<glyph unicode="&#xe911;" glyph-name="location" d="M837.82 561.778c0 86.413-34.327 169.285-95.431 230.388-61.103 61.103-143.976 95.43-230.389 95.43s-169.285-34.327-230.388-95.43c-61.103-61.103-95.43-143.976-95.43-230.388 0-133.658 106.941-307.86 325.818-516.528 218.88 208.668 325.82 382.871 325.82 516.528zM512-53.658c-265.506 241.323-398.222 446.517-398.222 615.435 0 105.615 41.955 206.904 116.636 281.586s175.97 116.636 281.586 116.636c105.615 0 206.905-41.955 281.583-116.636 74.684-74.681 116.639-175.971 116.639-281.586 0-168.918-132.716-374.113-398.222-615.435zM511.996 453.174c28.805 0 56.429 11.442 76.796 31.809s31.81 47.992 31.81 76.797c0 28.804-11.442 56.428-31.81 76.796s-47.991 31.81-76.796 31.81c-28.804 0-56.428-11.443-76.796-31.81s-31.81-47.992-31.81-76.796c0-28.805 11.443-56.429 31.81-76.797s47.992-31.809 76.796-31.809zM511.996 380.769c-48.007 0-94.048 19.071-127.993 53.018s-53.016 79.987-53.016 127.994c0 48.007 19.070 94.047 53.016 127.993s79.986 53.016 127.993 53.016c48.007 0 94.048-19.070 127.994-53.016s53.019-79.986 53.019-127.993c0-48.007-19.073-94.048-53.019-127.994s-79.987-53.018-127.994-53.018z" />
<glyph unicode="&#xe912;" glyph-name="magnifying-glass" d="M434.737 950.989c-67.536-5.846-125.092-22.126-181.339-51.358-42.805-22.231-79.47-49.535-111.117-81.782l-0.066-0.067c-72.979-72.979-116.423-162.187-131.039-268.983-3.276-23.688-2.822-86.688 0.806-111.736 19.202-133.408 89.611-246.657 198.827-319.938 58.363-39.16 124.891-64.008 198.727-74.239 23.99-3.326 89.913-2.822 115.063 0.856 81.013 11.623 153.198 42.494 213.97 87.819l-1.232-0.879c6.098 4.486 11.44 8.216 11.844 8.216 0.454 0 43.042-42.286 94.752-93.945 62.546-62.496 96.314-95.054 101.001-97.423 9.626-4.788 31.399-4.99 40.471-0.352 8.014 4.082 23.335 19.404 27.418 27.418 4.636 9.122 4.436 30.844-0.404 40.471-2.318 4.636-35.784 39.412-97.675 101.455l-94.096 94.348 8.416 11.492c38.7 51.728 67.246 113.393 81.365 180.375l0.535 3.030c6.854 34.222 8.316 49.946 8.316 90.115 0 51.004-4.888 85.629-18.548 130.687-51.76 170.805-195.047 294.133-372.303 320.492-21.37 3.176-76.053 5.494-93.693 3.932zM501.064 849.484c91.98-10.080 176.601-54.835 234.611-124.034 52.242-61.609 84.006-142.016 84.006-229.842 0-41.093-6.954-80.561-19.749-117.293l0.759 2.501c-44.432-126.663-154.891-219.366-289.020-237.482l-1.837-0.203c-13.685-1.564-29.544-2.457-45.612-2.457s-31.927 0.893-47.531 2.63l1.92-0.173c-163.905 21.883-291.447 152.697-308.121 316.314l-0.124 1.508c-0.779 9.856-1.224 21.342-1.224 32.931 0 20.555 1.397 40.783 4.101 60.596l-0.257-2.303c20.965 125.823 105.393 227.973 218.658 273.624l2.395 0.852c28.667 11.437 61.926 19.7 96.579 23.253l1.6 0.133c15.22 1.31 54.734 1.008 68.846-0.554z" />
<glyph unicode="&#xe913;" glyph-name="paper-plane" d="M102.4-28.677l819.2 476.677-819.2 476.679v-370.749l586.829-105.93-586.829-105.928v-370.749z" />
<glyph unicode="&#xe914;" glyph-name="phone" d="M419.312-35.228l-3.462 3.716c-375.353 452.555-69.717 851.095 32.956 962.637 7.96 8.697 17.555 15.737 28.242 20.717s22.252 7.804 34.027 8.309c11.78 0.504 23.542-1.321 34.617-5.37 11.072-4.050 21.237-10.245 29.909-18.229l112.181-120.448c8.163-8.748 13.51-19.746 15.349-31.57 1.843-11.822 0.091-23.926-5.028-34.742l-50.809-109.37c-4.968-10.6-12.941-19.508-22.925-25.616-9.989-6.108-21.552-9.147-33.25-8.74l-90.365 2.789c-34.557-45.766-54.223-101.047-56.334-158.356-2.115-57.31 13.429-113.881 44.52-162.070l91.176-3.665c11.719-0.579 23.007-4.593 32.455-11.546 9.453-6.95 16.645-16.527 20.689-27.543l43.743-113.152c4.122-11.127 4.834-23.227 2.055-34.756-2.779-11.534-8.935-21.98-17.672-29.999l-115.422-107.497c-17.391-16.2-40.506-24.824-64.259-23.982-23.753 0.846-46.199 11.093-62.394 28.484zM536.768 890.589c-5.395 5.798-12.88 9.213-20.797 9.494s-15.621-2.594-21.419-7.993l-1.752-1.629c-120.044-130.581-366.024-480.095-30.992-883.659 2.499-3.035 5.573-5.551 9.043-7.399s7.273-2.991 11.184-3.367c3.915-0.372 7.865 0.031 11.624 1.183 3.759 1.157 7.252 3.044 10.277 5.551l116.735 108.714-43.747 113.156-120.732 4.714-8.46 11.715c-153.295 212.374 12.863 415.292 14.832 417.124l9.272 11.084 120.554-3.652 51.875 109.544-107.497 115.42z" />
<glyph unicode="&#xe915;" glyph-name="roomers" d="M182.865 663.431c0 33.949 13.486 66.507 37.492 90.513s56.564 37.492 90.513 37.492c33.949 0 66.507-13.486 90.512-37.492s37.492-56.564 37.492-90.513c0-33.949-13.486-66.507-37.492-90.513s-56.564-37.492-90.512-37.492c-33.949 0-66.508 13.486-90.513 37.492s-37.492 56.564-37.492 90.513v0zM310.868 864.58c-53.348 0-104.512-21.193-142.235-58.915s-58.916-88.886-58.916-142.235c0-53.348 21.193-104.511 58.916-142.235s88.886-58.915 142.235-58.915c53.348 0 104.511 21.193 142.234 58.915s58.918 88.886 58.918 142.235c0 53.348-21.195 104.511-58.918 142.235s-88.886 58.915-142.234 58.915zM694.881 608.572c0 19.4 7.706 38.004 21.422 51.722 13.722 13.718 32.323 21.424 51.722 21.424s38.006-7.707 51.722-21.424c13.716-13.718 21.427-32.322 21.427-51.722s-7.711-38.004-21.427-51.721c-13.716-13.718-32.323-21.424-51.722-21.424s-38.001 7.707-51.722 21.424c-13.716 13.717-21.422 32.322-21.422 51.721zM768.026 754.862c-38.799 0-76.006-15.413-103.439-42.848-27.438-27.435-42.849-64.645-42.849-103.443s15.411-76.008 42.849-103.443c27.433-27.435 64.64-42.848 103.439-42.848s76.012 15.413 103.444 42.848c27.433 27.434 42.849 64.645 42.849 103.443s-15.416 76.008-42.849 103.443c-27.433 27.435-64.645 42.848-103.444 42.848v0zM0.001 279.419c0 29.097 11.56 57.006 32.136 77.583 20.576 20.574 48.483 32.134 77.582 32.134h402.301c29.097 0 57.006-11.56 77.578-32.134 20.577-20.577 32.138-48.486 32.138-77.583v-8.269c-0.072-3.41-0.317-6.815-0.732-10.204-0.732-6.323-2.084-14.92-4.756-25.088-7.025-26.819-19.456-51.922-36.536-73.764-42.788-54.932-123.284-102.113-268.843-102.113s-226.020 47.181-268.845 102.113c-17.090 21.837-29.536 46.94-36.573 73.764-2.793 10.762-4.581 21.755-5.34 32.845-0.035 0.814-0.060 1.633-0.073 2.447v0.845l-0.037 0.292v7.132zM73.146 272.906v-0.435c0.507-6.154 1.547-12.247 3.109-18.217 3.292-12.728 9.985-29.916 23.443-47.212 25.784-33.065 82.435-73.917 211.171-73.917s185.423 40.852 211.172 73.876c10.931 13.998 18.898 30.075 23.404 47.252 1.577 5.97 2.627 12.063 3.149 18.217l0.036 0.435v6.513c0 9.697-3.855 19-10.711 25.861-6.861 6.856-16.164 10.711-25.861 10.711h-402.337c-9.699 0-19.002-3.855-25.861-10.711-6.859-6.861-10.712-16.164-10.712-25.861v-6.513zM639.181 151.707c34.012-11.556 76.329-18.58 128.845-18.58 117.069 0 183.598 34.857 219.914 77.716 17.664 20.849 26.696 41.989 31.268 58.225 2.468 8.709 4.045 17.638 4.721 26.665l0.036 1.316 0.036 0.804v1.388c0.005 11.807-2.319 23.501-6.835 34.406-4.516 10.911-11.136 20.823-19.482 29.174-8.351 8.346-18.263 14.968-29.174 19.484-10.906 4.516-22.6 6.838-34.406 6.833h-299.493c18.289-20.445 31.565-45.461 37.852-73.145h261.641c9.144 0 16.532-7.281 16.753-16.312-0.358-3.64-1.044-7.235-2.048-10.752-2.268-8.049-6.948-19.313-16.717-30.833-18.504-21.903-61.696-51.82-164.065-51.82-42.604 0-74.936 5.192-99.512 12.8-6.508-23.747-16.384-46.433-29.332-67.369v0z" />
<glyph unicode="&#xe916;" glyph-name="sort-arrows" d="M783.36 405.536c62.075 0 118.282-3.527 152.858-10.093 0.538 0 32.174-6.508 42.721-10.706 15.222-6.569 28.104-18.427 36.311-33.265 5.873-11.858 8.75-24.387 8.75-37.463-0.538-13.619-9.349-39.224-13.481-49.316-25.708-66.529-110.075-193.695-161.546-242.463-8.212-8.274-18.156-17.213-20.495-19.584-12.943-10.097-28.703-15.447-45.66-15.447-15.278 0-30.5 4.746-42.783 14.29-6.38 4.562-15.693 13.64-19.953 17.894l-2.278 2.299c-53.33 49.864-133.504 174.106-159.268 237.112-0.548 0-13.384 31.427-15.98 50.386l-0.44 4.828v2.376c0 27.366 15.222 52.905 39.849 65.981 13.481 7.117 52.669 13.681 53.268 14.29 35.113 5.352 88.986 8.88 148.127 8.88zM240.923 402.405c24.538 0 44.735-18.718 47.495-42.864l0.322-5.663 13.123-234.435c0-34.176-27.264-61.844-60.939-61.844-31.57 0-57.559 24.32-60.684 55.521l-0.315 6.323 13.182 234.435c0 26.819 21.392 48.526 47.817 48.526zM241.241 908.8c15.16 0 30.38-4.743 42.724-14.23 5.318-3.839 12.672-10.789 17.44-15.463l4.79-4.788c53.27-49.927 133.503-174.105 159.269-237.107 0.495 0 13.375-31.477 15.98-50.448l0.439-4.831v-2.372c0-27.304-15.28-52.846-39.847-65.92-13.482-7.176-52.67-13.683-53.27-14.291-35.113-5.351-88.983-8.879-148.124-8.879-62.078 0-118.283 3.527-152.858 10.095-0.6 0-32.178 6.507-42.724 10.703-15.22 6.507-28.103 18.426-36.312 33.265-5.872 11.858-8.748 24.386-8.748 37.399 0.539 13.683 9.348 39.224 13.422 49.319 25.766 66.589 110.074 193.747 161.606 242.458 8.209 8.331 18.156 17.271 20.493 19.642 12.883 10.095 28.702 15.446 45.72 15.446zM783.089 838.4c31.57 0 57.508-24.319 60.626-55.52l0.312-6.327-13.123-234.436c0-26.819-21.391-48.529-47.816-48.529-24.535 0-44.733 18.72-47.493 42.866l-0.323 5.663-13.184 234.436c0 34.177 27.325 61.847 61 61.847z" />
<glyph unicode="&#xe917;" glyph-name="ticket" d="M519.306-63.937c27.463 0.034 53.815 10.86 73.362 30.145l364.55 365.119c9.358 9.301 15.189 21.561 16.498 34.691l50.045 531.753c0.768 8.33-0.313 16.726-3.163 24.591-2.856 7.864-7.401 15.003-13.329 20.907-5.905 5.926-13.045 10.477-20.907 13.327-7.868 2.851-16.265 3.932-24.593 3.166l-531.752-50.047c-13.127-1.308-25.391-7.138-34.692-16.493l-365.118-364.55c-19.344-19.403-30.207-45.683-30.207-73.081s10.863-53.678 30.207-73.081l416.303-416.302c19.343-19.251 45.506-30.083 72.796-30.145zM860.535 397.297l-341.229-341.233-400.948 400.948 341.232 341.232 444.169 41.516-43.224-442.464zM654.069 504.722c-47.127 0-85.334 38.205-85.334 85.333s38.208 85.333 85.334 85.333c47.127 0 85.333-38.205 85.333-85.333s-38.207-85.333-85.333-85.333z" />
<glyph unicode="&#xe918;" glyph-name="twitter" d="M1024 760.534c-37.755-16.427-78.116-27.52-120.648-32.64 43.397 25.6 76.815 66.133 92.436 114.346-40.576-23.68-85.494-40.96-133.448-50.134-38.41 40.32-93.092 65.494-153.416 65.494-116.096 0-210.054-92.586-210.054-206.72 0-16.214 1.736-32 5.425-47.146-174.681 8.533-329.615 90.88-433.122 216.106-18.011-30.506-28.427-66.134-28.427-103.894 0-71.68 37.323-135.040 93.742-172.16-34.719 0.854-67.269 10.24-95.478 25.814 0-0.854 0-1.706 0-2.56 0-100.266 72.476-183.68 168.605-202.666-17.577-4.694-36.238-7.254-55.334-7.254-13.454 0-26.691 1.28-39.493 3.84 26.691-82.135 104.375-141.865 196.381-143.575-71.825-55.465-162.529-88.53-261.045-88.53-16.926 0-33.634 1.065-50.126 2.985 92.657-59.305 203.107-93.44 321.587-93.44 386.904 0 598.257 315.094 598.257 588.374 0 8.96-0.22 17.92-0.65 26.666 41.011 29.226 76.595 65.494 104.806 107.094z" />
<glyph unicode="&#xe919;" glyph-name="user" d="M523.684 960c-53.297 0-105.397-15.804-149.711-45.415s-78.854-71.696-99.25-120.936c-20.396-49.24-25.733-103.422-15.335-155.695s36.063-100.288 73.749-137.975c37.687-37.687 85.702-63.352 137.975-73.75 52.273-10.4 106.456-5.061 155.694 15.335s91.325 54.935 120.934 99.25c29.615 44.314 45.417 96.414 45.417 149.711 0 71.469-28.392 140.010-78.929 190.546s-119.075 78.927-190.545 78.927v0zM523.684 528.842c-31.978 0-63.238 9.483-89.827 27.249s-47.313 43.018-59.55 72.562c-12.237 29.544-15.439 62.053-9.201 93.417s21.638 60.173 44.25 82.785c22.612 22.612 51.421 38.011 82.785 44.25s63.874 3.036 93.414-9.201c29.545-12.237 54.8-32.961 72.564-59.55s27.249-57.849 27.249-89.827c0-42.881-17.036-84.006-47.357-114.328s-71.448-47.356-114.327-47.356v0zM1008.737-64v53.895c0 100.056-39.747 196.015-110.5 266.763-70.748 70.753-166.707 110.5-266.763 110.5h-215.579c-100.057 0-196.015-39.747-266.765-110.5-70.751-70.748-110.498-166.707-110.498-266.763v-53.895h107.79v53.895c0 71.47 28.391 140.013 78.927 190.545 50.536 50.537 119.078 78.929 190.547 78.929h215.579c71.47 0 140.008-28.392 190.545-78.929 50.537-50.532 78.929-119.075 78.929-190.545v-53.895h107.789z" />
<glyph unicode="&#xe91a;" glyph-name="logo" horiz-adv-x="8243" d="M478.182 732c-3.394 31.757-17.697 56.484-42.909 74.182-24.97 17.697-57.455 26.545-97.455 26.545-28.121 0-52.242-4.242-72.364-12.727s-35.515-20-46.182-34.545c-10.666-14.545-16.121-31.152-16.364-49.818 0-15.515 3.515-28.97 10.545-40.364 7.273-11.394 17.091-21.091 29.455-29.091 12.364-7.757 26.060-14.303 41.091-19.636s30.181-9.818 45.454-13.454l69.818-17.455c28.121-6.545 55.151-15.394 81.091-26.546 26.182-11.151 49.577-25.212 70.18-42.182 20.849-16.97 37.335-37.455 49.459-61.455 12.119-24 18.181-52.123 18.181-84.364 0-43.638-11.151-82.058-33.454-115.272-22.308-32.973-54.548-58.788-96.73-77.455-41.939-18.422-92.727-27.638-152.364-27.638-57.939 0-108.242 8.97-150.909 26.911-42.424 17.94-75.636 44.119-99.636 78.546-23.757 34.422-36.606 76.365-38.545 125.819h132.727c1.939-25.943 9.939-47.519 24-64.727 14.061-17.213 32.364-30.065 54.909-38.548 22.788-8.484 48.243-12.728 76.364-12.728 29.334 0 55.030 4.367 77.091 13.092 22.303 8.97 39.758 21.335 52.364 37.094 12.606 16 19.031 34.662 19.273 55.997-0.242 19.395-5.939 35.395-17.091 48.001-11.151 12.849-26.788 23.515-46.909 32-19.879 8.728-43.151 16.485-69.818 23.273l-84.727 21.818c-61.333 15.757-109.818 39.636-145.454 71.636-35.394 32.243-53.091 75.031-53.091 128.364 0 43.878 11.879 82.303 35.637 115.273 24 32.97 56.606 58.545 97.818 76.727 41.212 18.424 87.879 27.636 140 27.636 52.849 0 99.152-9.212 138.909-27.636 39.998-18.182 71.394-43.515 94.183-76 22.789-32.242 34.545-69.334 35.272-111.272h-129.818zM1021.783 750.545v-101.818h-321.091v101.818h321.091zM779.965 884.364h131.64v-524.366c0-17.695 2.662-31.268 7.997-40.724 5.576-9.211 12.851-15.514 21.816-18.908 8.97-3.395 18.913-5.094 29.819-5.094 8.243 0 15.759 0.609 22.548 1.823 7.030 1.208 12.36 2.299 16 3.272l22.18-102.912c-7.030-2.422-17.091-5.089-30.182-7.997-12.846-2.908-28.605-4.608-47.273-5.089-32.968-0.973-62.664 3.999-89.088 14.904-26.424 11.151-47.396 28.365-62.909 51.64-15.273 23.27-22.789 52.362-22.548 87.27v546.183zM1379.753 181.089c-54.543 0-101.816 12.001-141.819 36.004-39.997 23.997-71.030 57.574-93.092 100.726-21.816 43.151-32.727 93.573-32.727 151.272 0 57.697 10.911 108.242 32.727 151.636 22.062 43.394 53.094 77.091 93.092 101.091 40.003 24 87.276 36 141.819 36s101.816-12 141.819-36c39.997-24 70.907-57.697 92.728-101.091 22.057-43.394 33.091-93.939 33.091-151.636 0-57.699-11.034-108.121-33.091-151.272-21.821-43.151-52.731-76.728-92.728-100.726-40.003-24.003-87.276-36.004-141.819-36.004zM1380.48 286.546c29.578 0 54.303 8.12 74.184 24.361 19.876 16.486 34.662 38.548 44.36 66.186 9.943 27.633 14.909 58.424 14.909 92.361 0 34.182-4.966 65.091-14.909 92.727-9.697 27.879-24.484 50.061-44.36 66.546-19.881 16.485-44.605 24.727-74.184 24.727-30.305 0-55.516-8.242-75.638-24.727-19.876-16.485-34.785-38.667-44.728-66.546-9.692-27.636-14.541-58.545-14.541-92.727 0-33.937 4.849-64.729 14.541-92.361 9.943-27.638 24.852-49.7 44.728-66.186 20.122-16.241 45.332-24.361 75.638-24.361zM1769.354 192v558.545h127.636v-93.091h5.821c10.179 32.242 27.633 57.091 52.362 74.546 24.97 17.697 53.453 26.545 85.453 26.545 7.276 0 15.396-0.364 24.366-1.091 9.211-0.485 16.85-1.333 22.907-2.545v-121.091c-5.576 1.939-14.423 3.636-26.542 5.091-11.878 1.697-23.393 2.546-34.55 2.546-23.997 0-45.573-5.212-64.727-15.636-18.908-10.182-33.818-24.364-44.723-42.545-10.911-18.182-16.364-39.152-16.364-62.909v-328.364h-131.64zM2336.323 180.726c-35.395 0-67.272 6.303-95.636 18.908-28.119 12.851-50.422 31.759-66.908 56.73-16.241 24.97-24.361 55.757-24.361 92.365 0 31.514 5.816 57.574 17.454 78.182 11.633 20.603 27.515 37.089 47.636 49.453s42.788 21.697 67.999 28c25.452 6.545 51.758 11.273 78.909 14.182 32.727 3.394 59.269 6.424 79.636 9.091 20.362 2.909 35.149 7.272 44.365 13.091 9.452 6.061 14.177 15.394 14.177 28v2.182c0 27.394-8.12 48.606-24.361 63.636s-39.639 22.545-70.185 22.545c-32.241 0-57.815-7.030-76.723-21.091-18.668-14.061-31.273-30.667-37.821-49.819l-122.906 17.455c9.697 33.939 25.697 62.303 48 85.091 22.303 23.031 49.572 40.243 81.818 51.637 32.241 11.636 67.876 17.455 106.906 17.455 26.911 0 53.699-3.152 80.364-9.455 26.67-6.303 51.031-16.728 73.093-31.273 22.062-14.303 39.757-33.818 53.089-58.545 13.578-24.728 20.367-55.636 20.367-92.727v-373.818h-126.546v76.728h-4.367c-7.997-15.519-19.272-30.060-33.818-43.638-14.3-13.332-32.364-24.12-54.18-32.364-21.576-7.997-46.909-12.001-76.001-12.001zM2370.504 277.453c26.424 0 49.336 5.212 68.731 15.636 19.395 10.67 34.299 24.73 44.723 42.184 10.67 17.454 16 36.485 16 57.093v65.816c-4.116-3.394-11.151-6.545-21.089-9.455-9.697-2.908-20.608-5.453-32.727-7.634-12.119-2.186-24.12-4.122-35.999-5.821-11.878-1.695-22.185-3.149-30.909-4.362-19.635-2.668-37.212-7.030-52.726-13.092-15.519-6.062-27.761-14.546-36.731-25.452-8.97-10.67-13.455-24.489-13.455-41.457 0-24.243 8.852-42.547 26.547-54.912 17.7-12.36 40.243-18.545 67.635-18.545zM3016.745-29.092c-47.273 0-87.88 6.426-121.82 19.272-33.935 12.611-61.21 29.578-81.818 50.913-20.603 21.33-34.908 44.969-42.906 70.907l118.543 28.728c5.335-10.911 13.092-21.699 23.276-32.364 10.179-10.911 23.875-19.881 41.088-26.911 17.454-7.27 39.393-10.911 65.818-10.911 37.335 0 68.244 9.093 92.728 27.274 24.484 17.94 36.726 47.514 36.726 88.73v105.815h-6.543c-6.789-13.573-16.727-27.515-29.819-41.815-12.846-14.305-29.937-26.307-51.272-36.004-21.089-9.697-47.636-14.546-79.636-14.546-42.911 0-81.818 10.061-116.726 30.182-34.668 20.367-62.305 50.668-82.913 90.911-20.362 40.484-30.546 91.151-30.546 152.001 0 61.333 10.184 113.091 30.546 155.273 20.608 42.424 48.364 74.545 83.277 96.364 34.908 22.061 73.815 33.091 116.726 33.091 32.727 0 59.638-5.576 80.727-16.728 21.335-10.909 38.303-24.121 50.908-39.636 12.605-15.272 22.185-29.697 28.728-43.273h7.27v92.364h129.818v-567.639c0-47.754-11.392-87.27-34.181-118.543-22.784-31.273-53.939-54.666-93.45-70.18-39.516-15.519-84.367-23.276-134.548-23.276zM3017.836 303.273c27.878 0 51.635 6.789 71.276 20.362 19.635 13.578 34.545 33.091 44.723 58.547 10.184 25.452 15.273 55.997 15.273 91.636 0 35.151-5.089 65.939-15.273 92.364-9.938 26.424-24.724 46.909-44.36 61.454-19.395 14.788-43.274 22.182-71.639 22.182-29.332 0-53.816-7.636-73.452-22.909-19.64-15.273-34.427-36.242-44.365-62.909-9.938-26.424-14.909-56.484-14.909-90.182 0-34.184 4.972-64.121 14.909-89.818 10.179-25.457 25.088-45.332 44.728-59.638 19.876-14.060 44.242-21.089 73.088-21.089zM3671.347 181.089c-55.997 0-104.361 11.638-145.091 34.913-40.484 23.511-71.634 56.724-93.455 99.635-21.816 43.151-32.727 93.937-32.727 152.362 0 57.455 10.911 107.879 32.727 151.273 22.062 43.636 52.849 77.576 92.365 101.818 39.516 24.485 85.939 36.727 139.274 36.727 34.422 0 66.908-5.576 97.454-16.728 30.787-10.909 57.938-27.879 81.454-50.909 23.757-23.030 42.424-52.363 56.003-88 13.573-35.394 20.362-77.576 20.362-126.545v-40.365h-457.82v88.729h331.638c-0.241 25.212-5.699 47.636-16.364 67.273-10.665 19.878-25.574 35.515-44.728 46.909-18.908 11.394-40.97 17.091-66.181 17.091-26.911 0-50.545-6.546-70.907-19.637-20.367-12.848-36.244-29.818-47.636-50.909-11.151-20.848-16.85-43.758-17.091-68.727v-77.456c0-32.481 5.939-60.36 17.818-83.635 11.878-23.030 28.483-40.724 49.818-53.089 21.33-12.124 46.3-18.181 74.906-18.181 19.154 0 36.485 2.668 52.004 7.997 15.514 5.576 28.969 13.696 40.361 24.366 11.397 10.665 19.999 23.88 25.82 39.634l122.911-13.819c-7.762-32.481-22.548-60.846-44.365-85.089-21.576-23.997-49.213-42.665-82.908-55.997-33.7-13.092-72.243-19.64-115.64-19.64zM4684.59 685.454h-136.003c-3.876 22.303-11.028 42.061-21.453 59.273-10.424 17.455-23.393 32.243-38.907 44.364-15.519 12.121-33.213 21.212-53.094 27.273-19.635 6.303-40.847 9.455-63.636 9.455-40.484 0-76.365-10.182-107.633-30.545-31.273-20.121-55.762-49.697-73.457-88.727-17.7-38.788-26.547-86.182-26.547-142.182 0-56.97 8.847-104.97 26.547-144.002 17.94-38.784 42.424-68.122 73.457-87.997 31.268-19.635 67.026-29.455 107.269-29.455 22.303 0 43.151 2.908 62.546 8.724 19.635 6.062 37.212 14.909 52.726 26.547 15.759 11.638 28.974 25.938 39.639 42.911 10.911 16.968 18.422 36.362 22.543 58.179l136.003-0.727c-5.089-35.389-16.123-68.603-33.091-99.635-16.727-31.027-38.666-58.424-65.818-82.181-27.151-23.516-58.911-41.938-95.273-55.27-36.367-13.092-76.728-19.64-121.093-19.64-65.454 0-123.878 15.155-175.273 45.455-51.395 30.305-91.878 74.061-121.452 131.272-29.578 57.216-44.365 125.82-44.365 205.82 0 80.242 14.909 148.848 44.728 205.818 29.814 57.212 70.42 100.97 121.815 131.273s109.578 45.455 174.546 45.455c41.457 0 80-5.818 115.635-17.455 35.64-11.636 67.395-28.727 95.273-51.273 27.878-22.303 50.79-49.697 68.731-82.182 18.181-32.243 30.060-69.091 35.635-110.546zM5056.195 181.089c-54.548 0-101.821 12.001-141.819 36.004-40.003 23.997-71.030 57.574-93.092 100.726-21.816 43.151-32.727 93.573-32.727 151.272 0 57.697 10.911 108.242 32.727 151.636 22.062 43.394 53.089 77.091 93.092 101.091 39.997 24 87.27 36 141.819 36 54.543 0 101.796-12 141.834-36 39.987-24 70.912-57.697 92.723-101.091 22.067-43.394 33.075-93.939 33.075-151.636 0-57.699-11.008-108.121-33.075-151.272-21.811-43.151-52.736-76.728-92.723-100.726-40.038-24.003-87.291-36.004-141.834-36.004zM5056.922 286.546c29.573 0 54.303 8.12 74.189 24.361 19.866 16.486 34.662 38.548 44.339 66.186 9.933 27.633 14.95 58.424 14.95 92.361 0 34.182-5.018 65.091-14.95 92.727-9.677 27.879-24.474 50.061-44.339 66.546-19.886 16.485-44.616 24.727-74.189 24.727-30.305 0-55.516-8.242-75.638-24.727-19.881-16.485-34.79-38.667-44.728-66.546-9.697-27.636-14.546-58.545-14.546-92.727 0-33.937 4.849-64.729 14.546-92.361 9.938-27.638 24.847-49.7 44.728-66.186 20.122-16.241 45.332-24.361 75.638-24.361zM5577.421 519.273v-327.273h-131.635v558.545h125.85v-94.909h6.502c12.851 31.272 33.331 56.121 61.491 74.545 28.365 18.424 63.386 27.637 105.062 27.637 38.554 0 72.141-8.243 100.762-24.728 28.826-16.485 51.149-40.364 66.867-71.636 16.026-31.272 23.91-69.212 23.654-113.818v-355.636h-131.635v335.273c0 37.333-9.677 66.545-29.082 87.636-19.149 21.091-45.722 31.636-79.667 31.636-22.989 0-43.469-5.091-61.44-15.272-17.664-9.939-31.642-24.364-41.83-43.273-9.933-18.909-14.899-41.819-14.899-68.727zM6211.686 519.273v-327.273h-131.635v558.545h125.798v-94.909h6.554c12.851 31.272 33.331 56.121 61.44 74.545 28.365 18.424 63.386 27.637 105.114 27.637 38.554 0 72.090-8.243 100.71-24.728 28.877-16.485 51.149-40.364 66.918-71.636 15.974-31.272 23.859-69.212 23.654-113.818v-355.636h-131.635v335.273c0 37.333-9.728 66.545-29.133 87.636-19.149 21.091-45.67 31.636-79.616 31.636-23.040 0-43.52-5.091-61.44-15.272-17.715-9.939-31.642-24.364-41.83-43.273-9.933-18.909-14.899-41.819-14.899-68.727zM6961.562 181.089c-56.013 0-104.397 11.638-145.101 34.913-40.499 23.511-71.629 56.724-93.44 99.635-21.811 43.151-32.768 93.937-32.768 152.362 0 57.455 10.957 107.879 32.768 151.273 22.067 43.636 52.838 77.576 92.365 101.818 39.475 24.485 85.914 36.727 139.264 36.727 34.406 0 66.918-5.576 97.434-16.728 30.822-10.909 57.958-27.879 81.459-50.909 23.757-23.030 42.445-52.363 56.013-88 13.568-35.394 20.378-77.576 20.378-126.545v-40.365h-457.83v88.729h331.622c-0.256 25.212-5.683 47.636-16.333 67.273-10.701 19.878-25.6 35.515-44.749 46.909-18.893 11.394-40.96 17.091-66.202 17.091-26.88 0-50.534-6.546-70.912-19.637-20.326-12.848-36.198-29.818-47.616-50.909-11.162-20.848-16.845-43.758-17.101-68.727v-77.456c0-32.481 5.939-60.36 17.818-83.635 11.878-23.030 28.518-40.724 49.818-53.089 21.35-12.124 46.336-18.181 74.906-18.181 19.149 0 36.506 2.668 52.019 7.997 15.514 5.576 28.979 13.696 40.346 24.366 11.418 10.665 20.019 23.88 25.856 39.634l122.88-13.819c-7.731-32.481-22.528-60.846-44.339-85.089-21.606-23.997-49.254-42.665-82.944-55.997-33.69-13.092-72.243-19.64-115.61-19.64zM7575.142 181.089c-55.757 0-103.629 12.242-143.616 36.731-39.782 24.484-70.451 58.301-92.006 101.453-21.35 43.392-32 93.332-32 149.818 0 56.728 10.906 106.788 32.717 150.182 21.811 43.636 52.634 77.576 92.365 101.818 39.987 24.485 87.296 36.727 141.824 36.727 45.312 0 85.453-8.364 120.371-25.091 35.123-16.485 63.13-39.879 83.968-70.182 20.89-30.061 32.768-65.212 35.635-105.455h-125.798c-5.069 26.909-17.203 49.333-36.352 67.273-18.893 18.182-44.237 27.273-75.981 27.273-26.931 0-50.586-7.272-70.912-21.818-20.378-14.303-36.25-34.909-47.667-61.818-11.162-26.909-16.742-59.151-16.742-96.727 0-38.060 5.581-70.787 16.742-98.184 11.162-27.151 26.778-48.118 46.899-62.909 20.378-14.546 44.237-21.816 71.68-21.816 19.354 0 36.71 3.635 51.968 10.911 15.514 7.516 28.467 18.304 38.912 32.364s17.562 31.15 21.453 51.272h125.798c-3.123-39.516-14.746-74.547-34.867-105.093-20.122-30.3-47.514-54.057-82.176-71.27-34.714-16.968-75.418-25.457-122.214-25.457zM8211.661 750.545v-101.818h-321.075v101.818h321.075zM7969.843 884.364h131.635v-524.366c0-17.695 2.662-31.268 7.987-40.724 5.581-9.211 12.851-15.514 21.811-18.908 9.011-3.395 18.944-5.094 29.85-5.094 8.243 0 15.77 0.609 22.528 1.823 7.066 1.208 12.39 2.299 16.026 3.272l22.17-102.912c-7.014-2.422-17.101-5.089-30.208-7.997-12.8-2.908-28.57-4.608-47.258-5.089-32.973-0.973-62.669 3.999-89.088 14.904-26.419 11.151-47.411 28.365-62.925 51.64-15.258 23.27-22.784 52.362-22.528 87.27v546.183z" />
</font>
</defs>
</svg>
